<?xml version="1.0" encoding="utf-8"?>
<!-- Generator: Adobe Illustrator 27.5.0, SVG Export Plug-In . SVG Version: 6.00 Build 0)  -->
<svg version="1.1" xmlns="http://www.w3.org/2000/svg" xmlns:xlink="http://www.w3.org/1999/xlink" x="0px" y="0px"
	 viewBox="0 0 3710 3710" style="enable-background:new 0 0 3710 3710;" xml:space="preserve">
<g id="Background">
	<g>
		<g>
			<rect style="fill:#FFFFFF;" width="3710" height="3710"/>
		</g>
	</g>
</g>
<g id="Illustration">
	<g>
		<linearGradient id="SVGID_1_" gradientUnits="userSpaceOnUse" x1="3427.6709" y1="3223.6211" x2="1405.6532" y2="1454.3568">
			<stop  offset="0" style="stop-color:#DAE3FE"/>
			<stop  offset="1" style="stop-color:#E9EFFD"/>
		</linearGradient>
		<path style="fill:url(#SVGID_1_);" d="M3084.033,2304.763c-261.326,615.318-957.438,960.023-1561.109,867.04
			c-98.229-15.131-367.527-60.201-605.954-272.828C457.984,2489.653,359.826,1679.14,730.077,1107.953
			c269.478-415.724,752.544-651.384,1211.551-639.596c98.87,2.539,477.782,18.188,810.78,292.771
			c48.911,40.331,156.788,136.168,254.012,288.208C3234.719,1406.351,3254.343,1903.753,3084.033,2304.763z"/>
		<g>
			
				<linearGradient id="SVGID_00000160159008364949172420000003663766463970995369_" gradientUnits="userSpaceOnUse" x1="998.8333" y1="977.9405" x2="2564.1296" y2="2786.5811">
				<stop  offset="0" style="stop-color:#4F52FF"/>
				<stop  offset="1" style="stop-color:#4042E2"/>
			</linearGradient>
			<path style="fill:url(#SVGID_00000160159008364949172420000003663766463970995369_);" d="M3025.661,1920.094
				c-28.286,644.321-615.015,1141.897-1310.496,1111.364C1019.683,3000.927,478.815,2453.851,507.1,1809.53
				c28.286-644.321,615.014-1141.896,1310.496-1111.365C2513.078,728.697,3053.946,1275.774,3025.661,1920.094z"/>
			
				<linearGradient id="SVGID_00000139260115704225415810000007197427169908538531_" gradientUnits="userSpaceOnUse" x1="709.063" y1="1780.5594" x2="2687.2568" y2="1780.5594">
				<stop  offset="0" style="stop-color:#B37CFF"/>
				<stop  offset="1" style="stop-color:#F895E7"/>
			</linearGradient>
			
				<ellipse style="opacity:0.26;fill:url(#SVGID_00000139260115704225415810000007197427169908538531_);" cx="1698.16" cy="1780.559" rx="989.097" ry="934.381"/>
			<g style="opacity:0.68;">
				<g>
					<path style="fill:#FFFFFF;" d="M2086.996,1870.458c0,0-0.011,4.827-0.032,14.165c-0.083,9.355-0.207,23.237-0.368,41.345
						c-0.51,36.2-1.636,89.303-5.151,156.806c-3.523,67.49-9.479,149.409-20.972,242.88
						c-11.592,93.407-28.053,198.604-56.385,311.12c-14.299,56.184-31.536,114.251-54.763,172.444
						c-11.696,29.045-24.885,58.139-40.817,86.402c-7.956,14.128-16.641,28.022-26.303,41.415
						c-9.677,13.369-20.323,26.285-32.526,37.928c-12.165,11.622-25.948,22.072-41.685,29.334c-7.868,3.594-16.2,6.336-24.819,7.916
						c-8.661,1.532-17.431,1.885-26.262,0.992c-17.613-1.729-34.41-8.717-49.091-18.38c-14.756-9.679-27.669-21.895-39.278-35.142
						c-23.193-26.641-41.521-57.323-57.604-89.173c-16.042-31.934-29.67-65.337-41.889-99.498
						c-24.324-68.397-43.007-139.86-58.505-212.792c-15.429-72.972-27.523-147.522-37.056-222.976
						c-18.997-150.934-27.921-305.457-28.636-459.954c-0.119-77.246,2.286-154.483,6.36-231.31
						c4.159-76.826,10.373-153.243,18.953-228.797c8.621-75.544,19.577-150.242,33.776-223.432
						c14.258-73.155,31.563-144.919,54.474-213.736c11.493-34.378,24.454-68.004,39.79-100.214
						c15.44-32.094,33.099-63.089,55.796-89.955c11.373-13.345,24.069-25.652,38.662-35.307
						c14.509-9.655,31.155-16.477,48.503-18.061c4.273-0.39,8.757-0.477,12.943-0.318c4.379,0.225,8.648,0.721,12.898,1.458
						c8.481,1.543,16.698,4.215,24.491,7.693c15.593,7.023,29.426,17.117,41.748,28.404c12.356,11.309,23.277,23.883,33.246,36.961
						c9.97,13.088,18.968,26.723,27.277,40.603c16.625,27.77,30.575,56.459,42.963,85.177
						c24.676,57.52,43.228,115.156,58.715,170.997c30.678,111.857,48.893,216.783,61.71,310.024
						c6.338,46.653,11.211,90.453,15.007,131.017c3.72,40.571,6.412,77.9,8.416,111.638c3.977,67.482,5.295,120.592,5.906,156.797
						C2087.065,1851.138,2086.996,1870.458,2086.996,1870.458z M2074.549,1870.446c0,0,0.136-19.246-0.316-55.337
						c-0.485-36.088-1.618-89.029-5.353-156.302c-1.882-33.634-4.437-70.847-8.008-111.295
						c-3.521-40.449-8.009-84.139-13.981-130.677c-5.983-46.534-13.411-95.922-22.947-147.678
						c-9.549-51.746-21.12-105.895-35.964-161.678c-14.923-55.732-32.88-113.257-56.886-170.623
						c-12.052-28.637-25.649-57.236-41.865-84.881c-8.105-13.815-16.885-27.379-26.606-40.378
						c-9.716-12.988-20.362-25.458-32.364-36.643c-11.972-11.168-25.376-21.11-40.393-28.034
						c-15.005-6.898-31.629-10.524-48.329-8.7c-16.611,1.668-32.536,8.338-46.526,17.826c-14.064,9.483-26.378,21.612-37.425,34.816
						c-22.056,26.576-39.277,57.39-54.291,89.339c-14.918,32.067-27.5,65.587-38.623,99.872
						c-22.173,68.632-38.774,140.258-52.328,213.268c-13.496,73.049-23.753,147.604-31.675,222.989
						c-15.818,150.807-21.94,304.943-21.527,458.941c-0.265,153.977,7.67,308.063,25.654,458.581
						c9.026,75.242,20.609,149.589,35.513,222.331c14.971,72.702,33.12,143.922,56.84,211.966
						c11.914,33.981,25.222,67.18,40.873,98.827c15.681,31.564,33.58,61.885,55.992,87.946
						c11.211,12.963,23.629,24.822,37.623,34.124c13.936,9.294,29.626,15.883,45.956,17.594c16.328,1.805,32.818-1.638,47.53-8.56
						c14.767-6.928,27.91-16.982,39.588-28.289c11.715-11.322,22.02-23.978,31.407-37.126c9.374-13.175,17.828-26.889,25.577-40.865
						c15.52-27.955,28.393-56.835,39.797-85.697c22.651-57.838,39.42-115.678,53.278-171.659
						c13.796-56.027,24.467-110.342,33.263-162.214c8.775-51.881,15.59-101.351,21.067-147.945
						c5.472-46.597,9.563-90.324,12.794-130.801c3.271-40.473,5.614-77.702,7.344-111.348c3.433-67.296,4.501-120.243,4.973-156.336
						c0.141-18.045,0.25-31.879,0.323-41.202C2074.542,1875.262,2074.549,1870.446,2074.549,1870.446z"/>
				</g>
				<g>
					<path style="fill:#FFFFFF;" d="M2606.37,1870.52c0,0-0.069,6.184-0.199,18.165c-0.04,5.981-0.133,13.425-0.458,22.343
						c-0.271,8.897-0.51,19.219-1.17,30.839c-0.994,23.276-3.078,51.949-6.553,85.548c-3.531,33.593-8.74,72.103-16.71,114.859
						c-15.79,85.426-42.934,188.319-91.888,299.266c-24.556,55.361-54.608,112.616-91.673,169.584
						c-37.08,56.899-81.122,113.652-133.795,166.463c-26.311,26.396-54.603,51.963-85.275,75.708
						c-30.609,23.806-63.319,46.141-98.252,66.037c-69.706,39.884-148.447,70.345-232.797,84.655
						c-42.112,7.184-85.515,10.493-129.309,9.498c-21.871-0.483-44.012-1.823-65.992-4.584
						c-22.019-2.667-44.081-6.227-65.961-11.211c-87.691-19.313-173.099-56.889-250.38-108.995
						c-77.513-51.899-147.164-117.827-206.984-192.806c-59.905-75.003-110.092-159.062-150.152-248.378
						c-40.073-89.334-70.369-183.908-90.084-281.019c-20.084-97.06-29.492-196.593-29.736-296.038
						c0.299-99.445,9.747-198.97,29.89-296.008c19.769-97.088,50.121-191.627,90.243-280.913
						c40.104-89.268,90.337-173.256,150.244-248.195c59.828-74.913,129.468-140.767,206.948-192.579
						c77.273-52.016,162.656-89.302,250.193-108.729c87.542-19.48,176.85-20.765,260.944-6.32
						c84.223,14.401,162.874,44.741,232.574,84.491c34.927,19.833,67.631,42.122,98.224,65.902
						c30.66,23.713,58.948,49.25,85.257,75.616c52.668,52.753,96.715,109.456,133.813,166.312
						c37.086,56.922,67.166,114.14,91.75,169.47c49.017,110.884,76.217,213.749,92.051,299.156
						c7.993,42.748,13.223,81.252,16.771,114.842c3.494,33.596,5.594,62.267,6.599,85.539c0.667,11.632,0.91,21.919,1.188,30.797
						c0.328,8.876,0.426,16.349,0.469,22.369c0.138,12.036,0.21,18.249,0.21,18.249V1870.52z M2592.102,1870.453
						c0,0-0.048-6.155-0.14-18.08c-0.021-5.964-0.09-13.369-0.382-22.165c-0.241-8.796-0.443-18.99-1.061-30.514
						c-0.909-23.064-2.884-51.478-6.219-84.778c-3.391-33.292-8.428-71.464-16.188-113.849
						c-3.754-21.216-8.531-43.413-13.794-66.625c-5.568-23.139-11.553-47.332-18.946-72.228
						c-14.366-49.9-32.86-103.056-56.607-158.192c-23.885-55.052-53.201-112.036-89.477-168.796
						c-36.297-56.689-79.505-113.286-131.298-166.047c-25.872-26.37-53.715-51.941-83.934-75.721
						c-3.78-2.967-7.569-5.943-11.367-8.923c-3.875-2.882-7.757-5.771-11.649-8.668c-7.719-5.882-15.816-11.312-23.809-16.966
						c-16.267-10.887-32.864-21.633-50.202-31.454c-34.452-20.02-71.233-37.345-109.726-51.865
						c-19.286-7.169-39.055-13.452-59.174-19.037c-20.188-5.312-40.685-10.092-61.562-13.651
						c-41.761-7.163-84.658-10.633-128.164-9.575c-21.715,0.554-43.561,1.946-65.367,4.759
						c-21.808,2.714-43.655,6.312-65.316,11.322c-86.842,19.344-171.203,57.143-247.503,109.117
						c-76.313,52.12-144.63,118.101-203.145,192.903c-58.583,74.838-107.484,158.513-146.287,247.285
						c-77.632,177.736-115.768,375.014-115.559,571.747c-0.114,196.733,38.143,393.972,115.872,571.605
						c38.848,88.725,87.794,172.332,146.379,247.105c58.522,74.735,126.828,140.642,203.109,192.677
						c76.292,51.885,160.629,89.392,247.315,108.851c21.63,5.021,43.448,8.631,65.229,11.357
						c21.815,2.826,43.541,4.229,65.269,4.801c43.442,1.071,86.35-2.457,128.031-9.629c83.452-14.376,161.305-44.718,230.239-84.392
						c17.333-9.79,33.926-20.509,50.192-31.37c7.992-5.641,16.084-11.065,23.801-16.938c3.891-2.892,7.772-5.776,11.643-8.655
						c3.797-2.977,7.585-5.948,11.365-8.912c30.206-23.746,58.044-49.286,83.915-75.628
						c51.788-52.703,95.002-109.252,131.314-165.897c36.297-56.713,65.642-113.658,89.555-168.68
						c23.774-55.107,42.3-108.239,56.695-158.121c7.405-24.888,13.403-49.073,18.984-72.206c5.275-23.207,10.064-45.397,13.83-66.61
						c7.783-42.376,12.841-80.541,16.251-113.83c3.353-33.297,5.344-61.708,6.264-84.771c0.625-11.535,0.832-21.696,1.077-30.473
						c0.297-8.754,0.371-16.19,0.395-22.191c0.1-11.98,0.151-18.163,0.151-18.163V1870.453z"/>
				</g>
				<g>
					<path style="fill:#FFFFFF;" d="M712.355,1417.984c0,0,32.839-0.217,90.308-0.594c57.467-0.339,139.566-0.824,238.083-1.405
						c98.518-0.316,213.455-0.687,336.601-1.082c123.148-0.136,254.504-0.281,385.86-0.425
						c131.358,0.172,262.714,0.345,385.86,0.507c61.573,0.18,121.094,0.353,177.537,0.519c56.441,0.23,109.806,0.446,159.064,0.647
						c49.259,0.279,94.413,0.535,134.436,0.761c40.023,0.284,74.915,0.533,103.648,0.737c57.469,0.409,90.309,0.644,90.309,0.644
						c0.347,0.002,0.628,0.286,0.625,0.634c-0.001,0.344-0.281,0.623-0.625,0.625c0,0-32.84,0.234-90.309,0.644
						c-28.734,0.204-63.625,0.453-103.648,0.737c-40.023,0.226-85.177,0.482-134.436,0.761
						c-49.257,0.201-102.622,0.417-159.064,0.647c-56.443,0.165-115.964,0.339-177.537,0.519
						c-123.146,0.162-254.502,0.336-385.86,0.507c-131.356-0.144-262.712-0.289-385.86-0.425
						c-123.146-0.395-238.083-0.766-336.601-1.082c-98.517-0.581-180.615-1.066-238.083-1.405
						c-57.469-0.377-90.308-0.594-90.308-0.594c-0.519-0.003-0.935-0.426-0.931-0.944
						C711.427,1418.402,711.843,1417.988,712.355,1417.984z"/>
				</g>
				<g>
					<path style="fill:#FFFFFF;" d="M1017.133,977.961c0,0,23.315-0.25,64.117-0.692c40.8-0.315,99.088-0.766,169.032-1.307
						c34.972-0.178,72.859-0.373,112.931-0.578c40.073-0.159,82.331-0.329,126.046-0.504c87.431-0.135,180.691-0.281,273.95-0.425
						c93.258,0.173,186.518,0.345,273.949,0.507c43.715,0.18,85.973,0.355,126.046,0.519c40.072,0.23,77.959,0.446,112.931,0.647
						c69.945,0.328,128.231,1.097,169.032,1.403c40.802,0.471,64.117,0.739,64.117,0.739c0.348,0.005,0.626,0.289,0.623,0.638
						c-0.005,0.342-0.282,0.618-0.623,0.623c0,0-23.315,0.268-64.117,0.739c-40.8,0.305-99.087,1.076-169.032,1.403
						c-34.972,0.199-72.859,0.416-112.931,0.646c-40.073,0.165-82.332,0.339-126.046,0.519
						c-87.431,0.162-180.691,0.336-273.949,0.509c-93.26-0.146-186.519-0.291-273.95-0.426
						c-43.715-0.175-85.973-0.345-126.046-0.506c-40.071-0.204-77.959-0.398-112.931-0.576
						c-69.943-0.541-128.231-0.992-169.032-1.309c-40.802-0.44-64.117-0.692-64.117-0.692c-0.517-0.005-0.933-0.429-0.928-0.947
						C1016.211,978.379,1016.625,977.968,1017.133,977.961z"/>
				</g>
				<g>
					<path style="fill:#FFFFFF;" d="M621.061,1858.006c0,0,142.768-0.8,356.921-1.999c107.076-0.316,231.999-0.686,365.844-1.082
						c133.847-0.136,276.614-0.281,419.384-0.426c142.768,0.173,285.537,0.345,419.382,0.507
						c133.845,0.427,258.769,0.825,365.845,1.166c214.152,1.285,356.921,2.142,356.921,2.142c0.347,0.002,0.628,0.286,0.626,0.634
						c-0.003,0.344-0.283,0.623-0.626,0.625c0,0-142.769,0.857-356.921,2.142c-107.077,0.342-232,0.74-365.845,1.166
						c-133.845,0.162-276.614,0.335-419.382,0.507c-142.769-0.145-285.537-0.289-419.384-0.426
						c-133.845-0.395-258.767-0.764-365.844-1.082c-214.153-1.199-356.921-1.999-356.921-1.999
						c-0.519-0.002-0.936-0.424-0.933-0.943C620.131,1858.425,620.547,1858.009,621.061,1858.006z"/>
				</g>
				<g>
					<path style="fill:#FFFFFF;" d="M712.355,2298.029c0,0,32.839-0.217,90.308-0.594c57.467-0.339,139.566-0.824,238.083-1.405
						c98.518-0.318,213.455-0.687,336.601-1.082c123.148-0.136,254.504-0.281,385.86-0.426
						c131.358,0.172,262.714,0.345,385.86,0.507c61.573,0.18,121.094,0.353,177.537,0.519c56.441,0.229,109.806,0.446,159.064,0.647
						c49.259,0.278,94.413,0.535,134.436,0.761c40.023,0.284,74.915,0.533,103.648,0.737c57.469,0.409,90.309,0.644,90.309,0.644
						c0.347,0.001,0.628,0.286,0.625,0.634c-0.001,0.344-0.281,0.621-0.625,0.625c0,0-32.84,0.234-90.309,0.642
						c-28.734,0.206-63.625,0.453-103.648,0.739c-40.023,0.226-85.177,0.482-134.436,0.761
						c-49.257,0.201-102.622,0.417-159.064,0.647c-56.443,0.165-115.964,0.339-177.537,0.519
						c-123.146,0.162-254.502,0.334-385.86,0.508c-131.356-0.145-262.712-0.289-385.86-0.426
						c-123.146-0.397-238.083-0.766-336.601-1.082c-98.517-0.581-180.615-1.066-238.083-1.405
						c-57.469-0.379-90.308-0.594-90.308-0.594c-0.519-0.003-0.935-0.426-0.931-0.944
						C711.427,2298.446,711.843,2298.032,712.355,2298.029z"/>
				</g>
				<g>
					<path style="fill:#FFFFFF;" d="M2546.874,2742.275H1054.726c-1.818,0-3.288-1.471-3.288-3.289c0-1.817,1.471-3.288,3.288-3.288
						h1492.148c1.818,0,3.289,1.471,3.289,3.288C2550.162,2740.804,2548.691,2742.275,2546.874,2742.275z"/>
				</g>
			</g>
		</g>
		<g>
			
				<linearGradient id="SVGID_00000137819426394764014850000018444141089356027542_" gradientUnits="userSpaceOnUse" x1="1099.1401" y1="783.8497" x2="948.6948" y2="1124.2018">
				<stop  offset="0" style="stop-color:#FF928E"/>
				<stop  offset="1" style="stop-color:#FE7062"/>
			</linearGradient>
			<circle style="fill:url(#SVGID_00000137819426394764014850000018444141089356027542_);" cx="1017.484" cy="968.58" r="160.91"/>
			<path style="opacity:0.78;fill:#FFFFFF;" d="M869.154,963.987c-0.058,0-0.116,0-0.173-0.003
				c-1.814-0.096-3.208-1.644-3.115-3.455c0.334-6.387,1.079-12.804,2.209-19.072c0.324-1.786,2.004-2.967,3.822-2.653
				c1.789,0.324,2.974,2.033,2.653,3.822c-1.085,5.999-1.795,12.136-2.113,18.244C872.343,962.626,870.891,963.987,869.154,963.987z
				"/>
			<path style="opacity:0.78;fill:#FFFFFF;" d="M884.796,905.027c-0.498,0-1.002-0.112-1.477-0.353
				c-1.622-0.819-2.274-2.797-1.455-4.416c25.996-51.507,77.962-83.505,135.619-83.505c9.191,0,18.407,0.829,27.386,2.466
				c1.789,0.324,2.974,2.036,2.646,3.822c-0.324,1.789-2.03,2.993-3.822,2.646c-8.594-1.564-17.412-2.357-26.211-2.357
				c-55.158,0-104.877,30.611-129.749,79.889C887.156,904.365,885.997,905.027,884.796,905.027z"/>
			
				<ellipse transform="matrix(0.7071 -0.7071 0.7071 0.7071 -388.3275 1006.6663)" style="opacity:0.78;fill:#FFFFFF;" cx="1020.99" cy="972.086" rx="136.19" ry="136.19"/>
			
				<linearGradient id="SVGID_00000155834593728542101670000001064836569785175201_" gradientUnits="userSpaceOnUse" x1="1084.5745" y1="777.4112" x2="934.1286" y2="1117.7645">
				<stop  offset="0" style="stop-color:#FF928E"/>
				<stop  offset="1" style="stop-color:#FE7062"/>
			</linearGradient>
			<path style="fill:url(#SVGID_00000155834593728542101670000001064836569785175201_);" d="M1062.687,920.624
				c0,23.06-18.694,47.956-41.755,47.956c-23.06,0-41.754-24.896-41.754-47.956s18.694-39.42,41.754-39.42
				C1043.993,881.204,1062.687,897.564,1062.687,920.624z"/>
			
				<linearGradient id="SVGID_00000106111234096033619410000017059669804432193197_" gradientUnits="userSpaceOnUse" x1="1120.3569" y1="793.2285" x2="969.9113" y2="1133.5814">
				<stop  offset="0" style="stop-color:#FF928E"/>
				<stop  offset="1" style="stop-color:#FE7062"/>
			</linearGradient>
			<path style="fill:url(#SVGID_00000106111234096033619410000017059669804432193197_);" d="M969.115,1057.365h101.93
				c10.73,0,20.229-6.935,23.499-17.154l5.485-17.143c4.016-12.552-2.513-26.142-14.891-30.668
				c-41.481-15.167-84.375-13.221-128.315,1.399c-12.309,4.096-19.14,17.263-15.744,29.783l4.224,15.569
				C948.219,1049.902,957.977,1057.365,969.115,1057.365z"/>
		</g>
		<g>
			
				<linearGradient id="SVGID_00000152952376026944146950000015249107727171627680_" gradientUnits="userSpaceOnUse" x1="841.0839" y1="1812.826" x2="692.2823" y2="2149.0688">
				<stop  offset="0" style="stop-color:#FF928E"/>
				<stop  offset="1" style="stop-color:#FE7062"/>
			</linearGradient>
			<circle style="fill:url(#SVGID_00000152952376026944146950000015249107727171627680_);" cx="765.573" cy="1983.456" r="160.91"/>
			<path style="opacity:0.78;fill:#FFFFFF;" d="M617.245,1978.862c-0.058,0-0.116,0-0.174-0.003
				c-1.814-0.096-3.208-1.644-3.115-3.456c0.334-6.378,1.076-12.794,2.206-19.069c0.321-1.789,2.039-2.99,3.818-2.656
				c1.789,0.321,2.977,2.033,2.656,3.818c-1.082,6.008-1.792,12.149-2.11,18.247
				C620.433,1977.501,618.982,1978.862,617.245,1978.862z"/>
			<path style="opacity:0.78;fill:#FFFFFF;" d="M632.887,1919.902c-0.498,0-1.002-0.112-1.477-0.353
				c-1.622-0.819-2.274-2.797-1.455-4.416c25.996-51.507,77.962-83.502,135.619-83.502c9.201,0,18.414,0.828,27.383,2.463
				c1.789,0.324,2.974,2.036,2.646,3.822c-0.324,1.789-2.033,2.993-3.822,2.646c-8.584-1.561-17.399-2.354-26.208-2.354
				c-55.162,0-104.877,30.611-129.749,79.886C635.247,1919.24,634.088,1919.902,632.887,1919.902z"/>
			
				<ellipse transform="matrix(0.7071 -0.7071 0.7071 0.7071 -1179.7361 1125.7886)" style="opacity:0.78;fill:#FFFFFF;" cx="769.079" cy="1986.962" rx="136.19" ry="136.19"/>
			
				<linearGradient id="SVGID_00000146481817739340713440000007370196373764980669_" gradientUnits="userSpaceOnUse" x1="826.5041" y1="1806.3738" x2="677.7023" y2="2142.6172">
				<stop  offset="0" style="stop-color:#FF928E"/>
				<stop  offset="1" style="stop-color:#FE7062"/>
			</linearGradient>
			<path style="fill:url(#SVGID_00000146481817739340713440000007370196373764980669_);" d="M810.776,1935.5
				c0,23.061-18.694,47.956-41.755,47.956c-23.06,0-41.754-24.896-41.754-47.956c0-23.06,18.694-39.421,41.754-39.421
				C792.082,1896.079,810.776,1912.44,810.776,1935.5z"/>
			
				<linearGradient id="SVGID_00000048482632414662178930000004145601318929455514_" gradientUnits="userSpaceOnUse" x1="862.3169" y1="1822.2228" x2="713.5156" y2="2158.4651">
				<stop  offset="0" style="stop-color:#FF928E"/>
				<stop  offset="1" style="stop-color:#FE7062"/>
			</linearGradient>
			<path style="fill:url(#SVGID_00000048482632414662178930000004145601318929455514_);" d="M717.204,2072.24h101.93
				c10.73,0,20.229-6.935,23.499-17.154l5.485-17.143c4.016-12.552-2.513-26.142-14.891-30.668
				c-41.482-15.167-84.375-13.221-128.315,1.4c-12.309,4.096-19.14,17.263-15.744,29.783l4.224,15.569
				C696.308,2064.778,706.065,2072.24,717.204,2072.24z"/>
		</g>
		<g>
			
				<linearGradient id="SVGID_00000163761847888177520200000012126514158860269236_" gradientUnits="userSpaceOnUse" x1="1152.1338" y1="2370.6328" x2="995.1107" y2="2731.5391">
				<stop  offset="0" style="stop-color:#FF928E"/>
				<stop  offset="1" style="stop-color:#FE7062"/>
			</linearGradient>
			<circle style="fill:url(#SVGID_00000163761847888177520200000012126514158860269236_);" cx="1062.687" cy="2576.22" r="160.91"/>
			<path style="opacity:0.78;fill:#FFFFFF;" d="M914.357,2571.626c-0.058,0-0.116,0-0.173-0.003
				c-1.814-0.096-3.208-1.644-3.115-3.456c0.334-6.387,1.079-12.804,2.209-19.072c0.324-1.786,2.01-2.98,3.822-2.653
				c1.789,0.324,2.974,2.033,2.653,3.822c-1.086,5.999-1.795,12.136-2.113,18.244
				C917.546,2570.264,916.094,2571.626,914.357,2571.626z"/>
			<path style="opacity:0.78;fill:#FFFFFF;" d="M929.999,2512.665c-0.498,0-1.002-0.113-1.477-0.353
				c-1.622-0.819-2.274-2.797-1.455-4.416c25.999-51.507,77.966-83.502,135.619-83.502c9.204,0,18.42,0.829,27.386,2.463
				c1.786,0.324,2.97,2.036,2.643,3.825c-0.324,1.789-2.013,2.98-3.825,2.643c-8.578-1.561-17.393-2.354-26.205-2.354
				c-55.159,0-104.874,30.611-129.749,79.886C932.36,2512.004,931.2,2512.665,929.999,2512.665z"/>
			
				<ellipse transform="matrix(0.7071 -0.7071 0.7071 0.7071 -1511.861 1509.4963)" style="opacity:0.78;fill:#FFFFFF;" cx="1066.193" cy="2579.726" rx="136.19" ry="136.19"/>
			
				<linearGradient id="SVGID_00000005968923578587171830000006122112121687883187_" gradientUnits="userSpaceOnUse" x1="1137.762" y1="2364.3796" x2="980.7391" y2="2725.2854">
				<stop  offset="0" style="stop-color:#FF928E"/>
				<stop  offset="1" style="stop-color:#FE7062"/>
			</linearGradient>
			<path style="fill:url(#SVGID_00000005968923578587171830000006122112121687883187_);" d="M1107.89,2528.264
				c0,23.061-18.694,47.956-41.755,47.956c-23.06,0-41.755-24.896-41.755-47.956c0-23.06,18.694-39.42,41.755-39.42
				C1089.195,2488.844,1107.89,2505.204,1107.89,2528.264z"/>
			
				<linearGradient id="SVGID_00000083058521425442608110000014042115192874214583_" gradientUnits="userSpaceOnUse" x1="1173.1309" y1="2379.7678" x2="1016.1077" y2="2740.6741">
				<stop  offset="0" style="stop-color:#FF928E"/>
				<stop  offset="1" style="stop-color:#FE7062"/>
			</linearGradient>
			<path style="fill:url(#SVGID_00000083058521425442608110000014042115192874214583_);" d="M1014.317,2665.004h101.93
				c10.73,0,20.229-6.935,23.499-17.154l5.485-17.143c4.016-12.552-2.513-26.142-14.891-30.668
				c-41.482-15.167-84.375-13.221-128.315,1.4c-12.309,4.096-19.14,17.262-15.744,29.783l4.224,15.569
				C993.422,2657.542,1003.179,2665.004,1014.317,2665.004z"/>
		</g>
		<g>
			<g>
				<path style="fill:#FFFFFF;" d="M744.425,1597.27c-9.793,0-18.668-5.001-23.74-13.378
					c-27.975-46.219-61.326-107.116-61.326-134.756c0-43.306,38.161-78.536,85.063-78.536c46.903,0,85.064,35.23,85.064,78.536
					c0,27.64-33.351,88.536-61.326,134.756C763.091,1592.268,754.216,1597.27,744.425,1597.27z M744.422,1382.664
					c-40.252,0-72.999,29.819-72.999,66.472c0,19.113,21.717,65.951,59.583,128.505c2.869,4.736,7.885,7.564,13.419,7.564
					c5.531,0,10.548-2.828,13.414-7.561c37.866-62.558,59.583-109.396,59.583-128.508
					C817.422,1412.483,784.675,1382.664,744.422,1382.664z"/>
				<path style="fill:#FFFFFF;" d="M737.881,1504.162c-29.213,0-52.979-23.766-52.979-52.979c0-3.331,2.701-6.032,6.032-6.032
					c3.331,0,6.032,2.701,6.032,6.032c0,22.562,18.353,40.915,40.915,40.915c22.562,0,40.915-18.353,40.915-40.915
					s-18.353-40.915-40.915-40.915c-13.045,0-25.007,6.006-32.818,16.477c-1.988,2.672-5.77,3.225-8.442,1.231
					c-2.672-1.994-3.222-5.773-1.231-8.442c9.964-13.357,25.846-21.33,42.491-21.33c29.213,0,52.979,23.767,52.979,52.979
					S767.094,1504.162,737.881,1504.162z"/>
			</g>
		</g>
		<g>
			<g>
				<path style="fill:#FFFFFF;" d="M1079.369,1879.921c-9.793,0-18.668-5.001-23.74-13.378
					c-27.976-46.219-61.327-107.116-61.327-134.756c0-43.306,38.161-78.536,85.063-78.536c46.903,0,85.064,35.23,85.064,78.536
					c0,27.64-33.351,88.536-61.327,134.756C1098.034,1874.92,1089.16,1879.921,1079.369,1879.921z M1079.366,1665.315
					c-40.252,0-72.999,29.819-72.999,66.472c0,19.113,21.716,65.951,59.583,128.505c2.869,4.736,7.885,7.564,13.419,7.564
					c5.531,0,10.548-2.828,13.413-7.561c37.867-62.558,59.583-109.396,59.583-128.508
					C1152.366,1695.134,1119.619,1665.315,1079.366,1665.315z"/>
				<path style="fill:#FFFFFF;" d="M1072.825,1786.813c-29.213,0-52.979-23.767-52.979-52.979c0-3.331,2.701-6.032,6.032-6.032
					c3.331,0,6.032,2.701,6.032,6.032c0,22.562,18.353,40.915,40.915,40.915c22.562,0,40.915-18.353,40.915-40.915
					c0-22.562-18.353-40.915-40.915-40.915c-13.045,0-25.007,6.006-32.818,16.477c-1.988,2.672-5.77,3.225-8.442,1.231
					c-2.671-1.994-3.222-5.773-1.231-8.442c9.964-13.357,25.846-21.33,42.491-21.33c29.213,0,52.979,23.766,52.979,52.979
					C1125.804,1763.047,1102.037,1786.813,1072.825,1786.813z"/>
			</g>
		</g>
		<g>
			<g>
				<path style="fill:#FFFFFF;" d="M1031.312,1166.053c-0.462,0-0.931-0.077-1.391-0.241c-2.136-0.771-3.247-3.125-2.479-5.26
					l4.451-12.38c0.771-2.136,3.134-3.234,5.26-2.479c2.136,0.771,3.247,3.125,2.479,5.26l-4.451,12.38
					C1034.578,1165.009,1032.998,1166.053,1031.312,1166.053z"/>
			</g>
			<g>
				<path style="fill:#FFFFFF;" d="M998.035,1258.537c-0.463,0-0.931-0.077-1.391-0.244c-2.139-0.767-3.247-3.121-2.476-5.257
					l8.321-23.122c0.768-2.136,3.128-3.25,5.257-2.476c2.139,0.768,3.247,3.121,2.476,5.257l-8.321,23.122
					C1001.301,1257.493,999.718,1258.537,998.035,1258.537z M1014.673,1212.293c-0.462,0-0.931-0.077-1.391-0.244
					c-2.135-0.767-3.247-3.121-2.476-5.257l8.317-23.122c0.764-2.135,3.131-3.247,5.257-2.476c2.136,0.768,3.247,3.121,2.476,5.257
					l-8.318,23.122C1017.939,1211.25,1016.359,1212.293,1014.673,1212.293z"/>
			</g>
			<g>
				<path style="fill:#FFFFFF;" d="M991.937,1305.372c-1.407,0-2.781-0.723-3.545-2.026l-6.67-11.336
					c-0.62-1.053-0.739-2.325-0.324-3.475l4.454-12.377c0.768-2.136,3.134-3.244,5.257-2.476c2.139,0.768,3.247,3.122,2.476,5.257
					l-3.799,10.562l5.69,9.676c1.153,1.956,0.498,4.477-1.458,5.626C993.363,1305.188,992.647,1305.372,991.937,1305.372z"/>
			</g>
			<g>
				<path style="fill:#FFFFFF;" d="M1040.634,1388.132c-1.41,0-2.781-0.723-3.545-2.026l-12.174-20.691
					c-1.153-1.956-0.498-4.477,1.458-5.626c1.953-1.146,4.477-0.504,5.626,1.458l12.174,20.691c1.153,1.956,0.498,4.477-1.458,5.626
					C1042.06,1387.949,1041.344,1388.132,1040.634,1388.132z M1016.286,1346.753c-1.406,0-2.781-0.723-3.545-2.026l-12.174-20.691
					c-1.153-1.956-0.498-4.477,1.458-5.626c1.956-1.153,4.477-0.504,5.626,1.458l12.174,20.691c1.153,1.956,0.498,4.477-1.458,5.626
					C1017.711,1346.57,1016.995,1346.753,1016.286,1346.753z"/>
			</g>
			<g>
				<path style="fill:#FFFFFF;" d="M1059.475,1420.159c-1.41,0-2.781-0.722-3.545-2.026l-6.67-11.336
					c-1.153-1.956-0.498-4.477,1.458-5.626c1.953-1.156,4.473-0.504,5.626,1.458l6.67,11.336c1.153,1.956,0.498,4.477-1.458,5.626
					C1060.901,1419.976,1060.185,1420.159,1059.475,1420.159z"/>
			</g>
		</g>
		<g>
			<g>
				<path style="fill:#FFFFFF;" d="M1258.137,2324.206c-0.739,0-1.484-0.196-2.158-0.613c-1.93-1.192-2.531-3.725-1.336-5.659
					l6.911-11.191c1.195-1.927,3.725-2.527,5.658-1.336c1.93,1.191,2.531,3.725,1.336,5.658l-6.911,11.192
					C1260.86,2323.513,1259.514,2324.206,1258.137,2324.206z"/>
			</g>
			<g>
				<path style="fill:#FFFFFF;" d="M1208.367,2404.783c-0.739,0-1.484-0.199-2.158-0.614c-1.93-1.191-2.531-3.725-1.336-5.658
					l12.441-20.142c1.195-1.927,3.725-2.518,5.658-1.336c1.93,1.191,2.531,3.725,1.336,5.658l-12.441,20.142
					C1211.09,2404.089,1209.745,2404.783,1208.367,2404.783z M1233.252,2364.496c-0.739,0-1.484-0.199-2.158-0.613
					c-1.93-1.192-2.531-3.725-1.336-5.659l12.441-20.145c1.195-1.927,3.725-2.521,5.658-1.336c1.93,1.191,2.531,3.725,1.336,5.658
					l-12.441,20.145C1235.975,2363.802,1234.63,2364.496,1233.252,2364.496z"/>
			</g>
			<g>
				<path style="fill:#FFFFFF;" d="M1189.015,2436.119c-0.739,0-1.484-0.196-2.158-0.614c-1.93-1.191-2.531-3.725-1.336-5.658
					l6.911-11.192c1.195-1.927,3.728-2.531,5.658-1.336c1.93,1.191,2.531,3.725,1.336,5.658l-6.911,11.192
					C1191.739,2435.426,1190.393,2436.119,1189.015,2436.119z"/>
			</g>
		</g>
		<g>
			<g>
				<path style="fill:#FFFFFF;" d="M972.174,1933.223h-13.154c-2.723,0-4.933-2.21-4.933-4.933s2.209-4.933,4.933-4.933h13.154
					c2.723,0,4.933,2.21,4.933,4.933S974.898,1933.223,972.174,1933.223z"/>
			</g>
			<g>
				<path style="fill:#FFFFFF;" d="M1064.25,1933.223h-23.019c-2.723,0-4.933-2.21-4.933-4.933s2.209-4.933,4.933-4.933h23.019
					c2.723,0,4.933,2.21,4.933,4.933S1066.974,1933.223,1064.25,1933.223z M1018.212,1933.223h-23.019
					c-2.723,0-4.933-2.21-4.933-4.933s2.209-4.933,4.933-4.933h23.019c2.723,0,4.933,2.21,4.933,4.933
					S1020.936,1933.223,1018.212,1933.223z"/>
			</g>
			<g>
				<path style="fill:#FFFFFF;" d="M1108.111,1943.9c-1.532,0-3.044-0.713-4.008-2.052l-6.201-8.626h-10.633
					c-2.723,0-4.933-2.21-4.933-4.933s2.209-4.933,4.933-4.933h13.16c1.587,0,3.077,0.764,4.005,2.052l7.678,10.678
					c1.59,2.213,1.085,5.295-1.124,6.885C1110.115,1943.598,1109.11,1943.9,1108.111,1943.9z"/>
			</g>
			<g>
				<path style="fill:#FFFFFF;" d="M1176.629,2038.157c-1.278,0-2.537-0.594-3.34-1.708l-17.126-23.799
					c-1.326-1.843-0.906-4.412,0.935-5.739c1.85-1.326,4.412-0.906,5.739,0.934l17.126,23.799c1.326,1.843,0.906,4.412-0.934,5.739
					C1178.299,2037.907,1177.461,2038.157,1176.629,2038.157z M1142.373,1990.555c-1.278,0-2.537-0.594-3.34-1.708l-17.129-23.803
					c-1.326-1.843-0.906-4.412,0.935-5.739c1.85-1.329,4.412-0.902,5.739,0.935l17.129,23.803c1.326,1.843,0.906,4.412-0.934,5.739
					C1144.043,1990.304,1143.205,1990.555,1142.373,1990.555z"/>
			</g>
			<g>
				<path style="fill:#FFFFFF;" d="M1201.44,2072.637c-1.278,0-2.537-0.594-3.34-1.712l-7.682-10.678
					c-1.326-1.84-0.906-4.409,0.935-5.736c1.85-1.326,4.412-0.906,5.739,0.935l7.682,10.678c1.326,1.844,0.906,4.412-0.935,5.739
					C1203.11,2072.387,1202.272,2072.637,1201.44,2072.637z"/>
			</g>
		</g>
		<g>
			<path style="fill:#BDD0FB;" d="M2224.608,2703.287c0,0,154.698-772.401,527.674-1201.64
				c25.073-28.854,73.804-19.323,85.834,16.902C2918.553,1760.779,3085.075,2497.633,2224.608,2703.287z"/>
			<path style="opacity:0.5;fill:#FFFFFF;" d="M2301.892,2651.651c-1.866,1.884,0.843,4.709,2.959,3.087
				c78.014-59.821,376.928-351.459,466.714-918.894c0.288-1.823-2.515-2.438-2.967-0.648
				C2735.331,1867.067,2596.981,2353.75,2301.892,2651.651z"/>
		</g>
		<g>
			<path style="fill:#91B3FA;" d="M3204.614,1918.312c4.07-3.124,1.24-10.47-3.743-9.684
				c-79.547,12.546-367.113,78.143-562.17,387.142c-178.468,282.72-260.349,516.355-287.583,604.84
				c-5.385,17.498,8.488,36.085,25.114,33.627c98.54-14.565,371.709-71.58,472.479-264.589
				C2969.13,2439.001,3010.404,2067.401,3204.614,1918.312z"/>
			<path style="opacity:0.5;fill:#FFFFFF;" d="M2981.167,2082.524c0,0-252.689,119.498-608.913,820.086
				C2372.254,2902.61,2764.885,2221.833,2981.167,2082.524z"/>
		</g>
		<g>
			<g>
				<g>
					
						<linearGradient id="SVGID_00000070808165931649469700000013013918994761087878_" gradientUnits="userSpaceOnUse" x1="1550.3047" y1="2901.1775" x2="2439.5374" y2="608.9308" gradientTransform="matrix(1 -0.0023 0.0023 1 -2.4796 -0.3106)">
						<stop  offset="0" style="stop-color:#09005D"/>
						<stop  offset="1" style="stop-color:#1A0F91"/>
					</linearGradient>
					<path style="fill:url(#SVGID_00000070808165931649469700000013013918994761087878_);" d="M2558.617,3085.436
						c-0.449,44.23-38.448,80.091-84.886,80.192l-1122.591,2.446c-46.775,0.102-85.601-35.733-86.712-80.138l-52.31-2090.905
						c-1.244-49.715,38.015-89.919,87.677-89.681l1191.617,5.697c49.284,0.236,88.817,40.645,88.315,90.143L2558.617,3085.436z"/>
					
						<linearGradient id="SVGID_00000160881870010291393280000000132800502014323602_" gradientUnits="userSpaceOnUse" x1="1846.5582" y1="2376.25" x2="2175.0452" y2="-353.5993">
						<stop  offset="0" style="stop-color:#FF928E"/>
						<stop  offset="1" style="stop-color:#FE7062"/>
					</linearGradient>
					<path style="fill:url(#SVGID_00000160881870010291393280000000132800502014323602_);" d="M2457.433,1123.865
						c0.335-47.773-38.86-86.76-87.559-86.974l-945.778-4.158c-48.998-0.215-87.878,38.564-86.829,86.508l38.88,1777.766
						c0.952,43.544,39.463,78.708,86.006,78.634l898.526-1.426c46.272-0.073,84.02-35.243,84.324-78.646L2457.433,1123.865z"/>
					
						<linearGradient id="SVGID_00000164471726429232069000000017498116143857057467_" gradientUnits="userSpaceOnUse" x1="1905.03" y1="639.0078" x2="1899.2935" y2="988.9379">
						<stop  offset="0" style="stop-color:#8D55D1"/>
						<stop  offset="0.9964" style="stop-color:#1C2873"/>
					</linearGradient>
					<path style="fill:url(#SVGID_00000164471726429232069000000017498116143857057467_);" d="M2039.49,969.242
						c0.025,9.269-7.43,16.745-16.651,16.704l-246.137-1.115c-9.24-0.042-16.822-7.595-16.934-16.876l0,0
						c-0.112-9.286,7.297-16.784,16.547-16.74l246.417,1.15C2031.964,952.408,2039.466,959.966,2039.49,969.242L2039.49,969.242z"/>
				</g>
			</g>
			<g>
				<g>
					
						<linearGradient id="SVGID_00000180333098746830902840000016853510016003539124_" gradientUnits="userSpaceOnUse" x1="1932.3004" y1="145.9943" x2="1439.0348" y2="948.3727">
						<stop  offset="0" style="stop-color:#E1473D"/>
						<stop  offset="1" style="stop-color:#E9605A"/>
					</linearGradient>
					<path style="fill:url(#SVGID_00000180333098746830902840000016853510016003539124_);" d="M1302.484,1032.697
						c-6.15,0-11.874,2.284-15.166,7.479c-69.21,109.217-138.429,222.326-207.638,326.782c68.021,0,136.04,0,204.057,0
						c53.232-104.457,106.467-220.851,159.7-334.261C1396.449,1032.697,1349.466,1032.697,1302.484,1032.697z"/>
					<path style="fill:#BDD0FB;" d="M1487.793,1369.476c-68.019,0-136.037,0-204.056,0
						c53.232-112.002,106.467-224.004,159.7-336.006c50.274,0,100.548,0,150.824,0
						C1558.772,1145.472,1523.283,1257.474,1487.793,1369.476z"/>
					<g>
						
							<linearGradient id="SVGID_00000150810582510023499030000004940277007005623707_" gradientUnits="userSpaceOnUse" x1="2193.2837" y1="306.4355" x2="1700.0178" y2="1108.8145">
							<stop  offset="0" style="stop-color:#E1473D"/>
							<stop  offset="1" style="stop-color:#E9605A"/>
						</linearGradient>
						<path style="fill:url(#SVGID_00000150810582510023499030000004940277007005623707_);" d="M1691.851,1369.476
							c-68.019,0-136.038,0-204.058,0c35.49-112.002,70.979-224.004,106.467-336.006c50.276,0,100.55,0,150.828,0
							C1727.341,1145.472,1709.596,1257.474,1691.851,1369.476z"/>
					</g>
					<path style="fill:#BDD0FB;" d="M1895.91,1369.476c-68.019,0-136.038,0-204.058,0c17.745-112.002,35.49-224.004,53.236-336.006
						c50.274,0,100.548,0,150.822,0C1895.91,1145.472,1895.91,1257.474,1895.91,1369.476z"/>
					<g>
						
							<linearGradient id="SVGID_00000172400650365587122590000006731446756020158085_" gradientUnits="userSpaceOnUse" x1="2450.8333" y1="464.7647" x2="1957.5674" y2="1267.1438">
							<stop  offset="0" style="stop-color:#E1473D"/>
							<stop  offset="1" style="stop-color:#E9605A"/>
						</linearGradient>
						<path style="fill:url(#SVGID_00000172400650365587122590000006731446756020158085_);" d="M2099.968,1369.476
							c-68.018,0-136.037,0-204.058,0c0-112.002,0-224.004,0-336.006c50.276,0,100.546,0,150.826,0
							C2064.478,1145.472,2082.223,1257.474,2099.968,1369.476z"/>
					</g>
					<path style="fill:#BDD0FB;" d="M2304.026,1369.476c-68.022,0-136.038,0-204.059,0
						c-17.743-112.002-35.488-224.004-53.232-336.006c50.274,0,100.548,0,150.824,0
						C2233.047,1145.472,2268.537,1257.474,2304.026,1369.476z"/>
					<g>
						
							<linearGradient id="SVGID_00000060719117221999164180000015718349172514744989_" gradientUnits="userSpaceOnUse" x1="2708.3811" y1="623.0958" x2="2215.115" y2="1425.4749">
							<stop  offset="0" style="stop-color:#E1473D"/>
							<stop  offset="1" style="stop-color:#E9605A"/>
						</linearGradient>
						<path style="fill:url(#SVGID_00000060719117221999164180000015718349172514744989_);" d="M2508.083,1369.476
							c-68.019,0-136.038,0-204.057,0c-35.49-112.002-70.979-224.004-106.467-336.006c50.278,0,100.548,0,150.827,0
							C2401.616,1145.472,2454.846,1257.474,2508.083,1369.476z"/>
					</g>
					<path style="fill:#BDD0FB;" d="M2504.501,1040.176c-3.292-5.195-9.016-7.479-15.166-7.479c-46.983,0-93.967,0-140.949,0
						c53.229,113.41,106.46,229.804,159.697,334.261c68.015,0,136.034,0,204.056,0
						C2642.93,1262.501,2573.711,1149.394,2504.501,1040.176z"/>
				</g>
				<g>
					
						<linearGradient id="SVGID_00000093152737556794054040000003858272420817388433_" gradientUnits="userSpaceOnUse" x1="1181.7203" y1="1269.0984" x2="1179.8392" y2="1726.1746">
						<stop  offset="0" style="stop-color:#E1473D"/>
						<stop  offset="1" style="stop-color:#E9605A"/>
					</linearGradient>
					<path style="fill:url(#SVGID_00000093152737556794054040000003858272420817388433_);" d="M1076.741,1366.957v58.205
						c0,48.478,49.252,85.05,105.452,85.05h2.188c56.2,0,101.273-36.572,101.273-85.05v-58.205H1076.741z"/>
					<path style="fill:#91B3FA;" d="M1285.654,1366.957v58.205c0,48.478,43.438,85.05,98.689,85.05h2.151
						c55.251,0,99.119-36.572,99.119-85.05v-58.205H1285.654z"/>
				</g>
				<g>
					
						<linearGradient id="SVGID_00000024703772794739631380000011571491287607588025_" gradientUnits="userSpaceOnUse" x1="1589.1008" y1="1269.1096" x2="1587.2198" y2="1726.1616">
						<stop  offset="0" style="stop-color:#E1473D"/>
						<stop  offset="1" style="stop-color:#E9605A"/>
					</linearGradient>
					<path style="fill:url(#SVGID_00000024703772794739631380000011571491287607588025_);" d="M1485.614,1366.957v58.205
						c0,48.478,48.116,85.05,104.316,85.05h2.188c56.199,0,99.424-36.572,99.424-85.05v-58.205H1485.614z"/>
					<path style="fill:#91B3FA;" d="M1691.542,1366.957v58.205c0,48.478,45.287,85.05,100.538,85.05h2.151
						c55.251,0,100.254-36.572,100.254-85.05v-58.205H1691.542z"/>
				</g>
				<g>
					
						<linearGradient id="SVGID_00000126285969707507713600000015788931958997622195_" gradientUnits="userSpaceOnUse" x1="1996.4813" y1="1269.121" x2="1994.6005" y2="1726.1487">
						<stop  offset="0" style="stop-color:#E1473D"/>
						<stop  offset="1" style="stop-color:#E9605A"/>
					</linearGradient>
					<path style="fill:url(#SVGID_00000126285969707507713600000015788931958997622195_);" d="M1894.486,1366.957v58.205
						c0,48.478,46.98,85.05,103.18,85.05h2.188c56.2,0,97.576-36.572,97.576-85.05v-58.205H1894.486z"/>
					<path style="fill:#91B3FA;" d="M2097.431,1366.957v58.205c0,48.478,47.136,85.05,102.387,85.05h2.151
						c55.251,0,101.39-36.572,101.39-85.05v-58.205H2097.431z"/>
				</g>
				<g>
					
						<linearGradient id="SVGID_00000062154671034940019550000015410801590197343638_" gradientUnits="userSpaceOnUse" x1="2406.8464" y1="1269.1034" x2="2404.9651" y2="1726.1851">
						<stop  offset="0" style="stop-color:#E1473D"/>
						<stop  offset="1" style="stop-color:#E9605A"/>
					</linearGradient>
					<path style="fill:url(#SVGID_00000062154671034940019550000015410801590197343638_);" d="M2303.359,1366.957v58.205
						c0,48.478,45.845,85.05,102.044,85.05h2.188c56.2,0,101.696-36.572,101.696-85.05v-58.205H2303.359z"/>
					<path style="fill:#91B3FA;" d="M2509.288,1366.957v58.205c0,48.478,43.016,85.05,98.267,85.05h2.151
						c55.251,0,99.541-36.572,99.541-85.05v-58.205H2509.288z"/>
				</g>
			</g>
			<g>
				
					<linearGradient id="SVGID_00000110445818529625908700000005823131621034339223_" gradientUnits="userSpaceOnUse" x1="2139.2488" y1="2268.4104" x2="1599.9449" y2="2873.4822">
					<stop  offset="0" style="stop-color:#E1473D"/>
					<stop  offset="1" style="stop-color:#E9605A"/>
				</linearGradient>
				<path style="fill:url(#SVGID_00000110445818529625908700000005823131621034339223_);" d="M2222.778,2542.504
					c0,67.764-54.934,122.698-122.698,122.698h-408.202c-67.764,0-122.698-54.934-122.698-122.698v-2.314
					c0-67.765,54.934-122.698,122.698-122.698h408.202c67.765,0,122.698,54.934,122.698,122.698V2542.504z"/>
				<g>
					<path style="fill:#FFFFFF;" d="M1713.043,2472.522c8.189-1.678,23.097-2.939,37.588-2.939c19.104,0,30.869,2.311,40.527,9.029
						c8.817,5.25,14.696,14.488,14.696,26.456c0,13.018-8.189,24.987-23.521,30.657v0.42c14.908,3.78,28.559,15.536,28.559,35.065
						c0,12.597-5.454,22.468-13.651,29.187c-10.075,8.817-26.665,13.226-52.488,13.226c-14.279,0-25.195-1.049-31.71-1.89V2472.522z
						 M1738.663,2528.373h13.226c17.847,0,27.93-8.397,27.93-20.365c0-13.23-10.083-19.316-26.461-19.316
						c-7.56,0-11.969,0.421-14.695,1.049V2528.373z M1738.663,2593.466c3.355,0.42,7.772,0.628,13.651,0.628
						c16.582,0,31.285-6.298,31.285-23.725c0-16.377-14.279-23.096-32.126-23.096h-12.81V2593.466z"/>
					<path style="fill:#FFFFFF;" d="M1859.583,2470.632v82.52c0,27.718,11.552,40.527,28.983,40.527
						c18.688,0,29.816-12.81,29.816-40.527v-82.52h25.823v80.842c0,43.674-22.468,62.991-56.48,62.991
						c-32.755,0-53.966-18.267-53.966-62.783v-81.05H1859.583z"/>
					<path style="fill:#FFFFFF;" d="M2005.918,2612.154v-59.003l-44.724-82.52h29.391l17.006,36.327
						c4.833,10.499,8.401,18.476,12.181,28.134h0.424c3.568-9.026,7.552-17.847,12.385-28.134l17.006-36.327h29.187l-47.034,81.891
						v59.631H2005.918z"/>
				</g>
			</g>
			<g>
				<path style="fill:#FFFFFF;" d="M2217.239,1769.002c-3.795-4.665-9.747-6.601-16.06-6.469l-574.807,12.058l-14.52-46.123
					c-2.018-6.426-8.061-10.541-14.894-10.361l-78.92,2.073c-8.463,0.222-15.316,6.107-15.316,14.553
					c0,8.446,6.854,13.989,15.316,13.789l67.442-1.593l122.035,389.954c2.055,6.563,8.216,11.078,15.202,11.172l403.454,5.416
					c9.469,0.127,17.156-5.815,17.156-14.768c0-8.951-7.687-15.081-17.156-15.183l-391.682-4.222l-31.436-101.248l430.425,0.653
					c8.813,0.013,16.581-5.754,19.051-13.752l67.933-219.651C2222.232,1779.569,2221.038,1773.67,2217.239,1769.002z"/>
				<path style="fill:#FFFFFF;" d="M1781.736,2172.107c-33.196-0.516-60.052,25.321-60.052,57.592s26.856,59.23,60.052,60.102
					c33.396,0.877,60.716-24.949,60.716-57.577C1842.452,2199.595,1815.132,2172.626,1781.736,2172.107z M1781.736,2258.416
					c-15.515-0.364-28.107-12.946-28.107-28.049c0-15.104,12.591-27.16,28.107-26.875c15.559,0.286,28.251,12.871,28.251,28.053
					C1809.987,2246.726,1797.295,2258.78,1781.736,2258.416z"/>
				<path style="fill:#FFFFFF;" d="M2050.684,2176.288c-34.84-0.542-63.025,25.914-63.025,58.972
					c0,33.058,28.184,60.691,63.025,61.606c35.056,0.921,63.738-25.524,63.738-58.956S2085.74,2176.833,2050.684,2176.288z
					 M2050.684,2264.712c-16.284-0.381-29.499-13.279-29.499-28.751c0-15.473,13.215-27.818,29.499-27.518
					c16.332,0.301,29.655,13.2,29.655,28.755C2080.338,2252.751,2067.015,2265.094,2050.684,2264.712z"/>
			</g>
		</g>
		<g>
			<g>
				
					<linearGradient id="SVGID_00000150812336496624367370000000565225111778564769_" gradientUnits="userSpaceOnUse" x1="2347.4312" y1="2891.7725" x2="2546.3813" y2="2538.2659">
					<stop  offset="0" style="stop-color:#4F52FF"/>
					<stop  offset="1" style="stop-color:#4042E2"/>
				</linearGradient>
				<path style="fill:url(#SVGID_00000150812336496624367370000000565225111778564769_);" d="M2524.077,2428.077
					c-0.667,1.264-42.691,32.188-42.691,32.188s9.28,66.393,46.966,92.609c41.433,28.823,99.947-23.742,99.947-23.742
					s46.567,11.07,71.331-85.865c5.682-22.239-27.114-24.119-66.695-20.023C2581.892,2428.526,2524.077,2428.077,2524.077,2428.077z
					"/>
				
					<linearGradient id="SVGID_00000145035290437801757070000000136038017594953638_" gradientUnits="userSpaceOnUse" x1="2780.9248" y1="2975.9688" x2="2100.251" y2="2576.4424">
					<stop  offset="0" style="stop-color:#4F52FF"/>
					<stop  offset="1" style="stop-color:#4042E2"/>
				</linearGradient>
				<path style="fill:url(#SVGID_00000145035290437801757070000000136038017594953638_);" d="M2445.527,2654.587
					c16.44-11.303,34.617-19.825,53.887-25.069c7.238-1.97,46.32,9.389,70.478,8.833c33.163-0.762,66.919-15.854,94.255-9.042
					c27.153,6.767,49.377,15.604,62.209,24.732c38.409,27.318,60.96,78.256,74.703,128.713
					c-26.022,26.712-58.77,38.584-58.77,38.584l-6.051,245.256l-145.024,74.2l-165.528-83.105l5.929-239.674
					c0,0-52.563-24.478-56.42-33.383C2371.339,2775.729,2399.152,2686.473,2445.527,2654.587z"/>
				
					<linearGradient id="SVGID_00000034775894343572046550000010155001900335186049_" gradientUnits="userSpaceOnUse" x1="2341.655" y1="2731.0571" x2="2617.2417" y2="3396.7603">
					<stop  offset="0" style="stop-color:#FEBBBA"/>
					<stop  offset="1" style="stop-color:#FF928E"/>
				</linearGradient>
				<path style="fill:url(#SVGID_00000034775894343572046550000010155001900335186049_);" d="M2377.644,2783.562
					c0,0-70.438,195.282,90.186,275.541c33.352-4.431,20.524-59.818,20.524-59.818s-69.792-15.445-48.832-178.347
					C2420.225,2805.061,2377.644,2783.562,2377.644,2783.562z"/>
				
					<linearGradient id="SVGID_00000110437281579193456150000005051543103144232887_" gradientUnits="userSpaceOnUse" x1="-6997.2793" y1="2729.6265" x2="-6721.6929" y2="3395.3293" gradientTransform="matrix(-1 0 0 1 -4167.0742 0)">
					<stop  offset="0" style="stop-color:#FEBBBA"/>
					<stop  offset="1" style="stop-color:#FF928E"/>
				</linearGradient>
				<path style="fill:url(#SVGID_00000110437281579193456150000005051543103144232887_);" d="M2797.672,2783.562
					c0,0,48.469,203.847-90.186,275.541c-33.352-4.431-20.524-59.818-20.524-59.818s56.248-27.702,48.832-178.347
					C2755.091,2805.061,2797.672,2783.562,2797.672,2783.562z"/>
				
					<linearGradient id="SVGID_00000024681976120760818610000000908079916652876464_" gradientUnits="userSpaceOnUse" x1="2586.4543" y1="2816.9258" x2="2572.1128" y2="3397.7637">
					<stop  offset="0" style="stop-color:#09005D"/>
					<stop  offset="1" style="stop-color:#1A0F91"/>
				</linearGradient>
				<path style="fill:url(#SVGID_00000024681976120760818610000000908079916652876464_);" d="M2737.743,3072.819h-309.91
					c-2.23,0-4.055-1.825-4.055-4.055v-206.661c0-2.23,1.825-4.055,4.055-4.055h309.91c2.23,0,4.055,1.825,4.055,4.055v206.661
					C2741.798,3070.995,2739.973,3072.819,2737.743,3072.819z"/>
				<g>
					
						<linearGradient id="SVGID_00000047031073450615896600000003131885350151736506_" gradientUnits="userSpaceOnUse" x1="2873.085" y1="2849.2476" x2="2813.8928" y2="3243.8599">
						<stop  offset="0" style="stop-color:#4F52FF"/>
						<stop  offset="1" style="stop-color:#4042E2"/>
					</linearGradient>
					<path style="fill:url(#SVGID_00000047031073450615896600000003131885350151736506_);" d="M2881.286,3136.491
						c-36.395-8.354-120.512-3.863-120.512-3.863l-3.421,9.265l-5.666,46.054c0,0,80.107,14.439,119.594,14.404
						c4.029-0.004,7.714-0.608,11.079-1.656c1.204-1.08,2.381-2.2,3.493-3.415
						C2902.605,3178.984,2897.767,3152.107,2881.286,3136.491z"/>
					
						<linearGradient id="SVGID_00000061444043798017116380000015772579776710824857_" gradientUnits="userSpaceOnUse" x1="2851.2546" y1="2894.6577" x2="2692.2878" y2="3325.2371">
						<stop  offset="0" style="stop-color:#FEBBBA"/>
						<stop  offset="1" style="stop-color:#FF928E"/>
					</linearGradient>
					<path style="fill:url(#SVGID_00000061444043798017116380000015772579776710824857_);" d="M2736.604,3130.035l14.243,0.607
						c7.653,0.327,14.865,4.055,20.01,10.347c5.146,6.29,7.792,14.614,7.342,23.092c-0.359,6.76-3.133,13.083-7.708,17.57
						c-4.575,4.485-10.573,6.763-16.667,6.329l-21.794-1.551L2736.604,3130.035z"/>
				</g>
				<g>
					
						<linearGradient id="SVGID_00000102502673497725510100000015406076958374111377_" gradientUnits="userSpaceOnUse" x1="2404.7339" y1="2859.6636" x2="2304.436" y2="3206.5945">
						<stop  offset="0" style="stop-color:#4F52FF"/>
						<stop  offset="1" style="stop-color:#4042E2"/>
					</linearGradient>
					<path style="fill:url(#SVGID_00000102502673497725510100000015406076958374111377_);" d="M2257.655,3132.061
						c36.589-7.235,120.563-0.164,120.563-0.164l3.188,9.367l4.515,46.21c0,0-80.437,11.975-119.907,10.729
						c-4.027-0.127-7.695-0.845-11.034-1.995c-1.177-1.116-2.325-2.273-3.407-3.522
						C2235.283,3173.883,2240.79,3147.165,2257.655,3132.061z"/>
					
						<linearGradient id="SVGID_00000025435629396984469300000000158171133109361803_" gradientUnits="userSpaceOnUse" x1="2532.7607" y1="2764.9023" x2="2373.7102" y2="3195.7083">
						<stop  offset="0" style="stop-color:#FEBBBA"/>
						<stop  offset="1" style="stop-color:#FF928E"/>
					</linearGradient>
					<path style="fill:url(#SVGID_00000025435629396984469300000000158171133109361803_);" d="M2402.442,3130.047l-14.254,0.17
						c-7.658,0.092-14.96,3.598-20.261,9.729c-5.3,6.13-8.153,14.369-7.914,22.858c0.19,6.769,2.805,13.174,7.267,17.799
						c4.461,4.624,10.4,7.085,16.503,6.839l21.824-0.882L2402.442,3130.047z"/>
				</g>
				
					<linearGradient id="SVGID_00000072241898469807586220000004140600393467062443_" gradientUnits="userSpaceOnUse" x1="2199.7937" y1="3361.7786" x2="2602.627" y2="3120.0781">
					<stop  offset="0" style="stop-color:#4F52FF"/>
					<stop  offset="1" style="stop-color:#4042E2"/>
				</linearGradient>
				<path style="fill:url(#SVGID_00000072241898469807586220000004140600393467062443_);" d="M2891.464,2992.116
					c-16.505-37.987-56.874-44.153-91.231-26.392c-0.598,0.785-218.195,112.306-410.089,161.182
					c5.494,17.612,8.318,36.351,8.935,54.771c0.111,4.104,0.042,8.151-0.198,12.145c147.155-7.558,306.861-56.634,444.097-99.763
					C2885.534,3080.336,2909.758,3034.219,2891.464,2992.116z"/>
				
					<linearGradient id="SVGID_00000077320289754690660810000007038208330787555213_" gradientUnits="userSpaceOnUse" x1="2507.1155" y1="3079.5479" x2="2959.2754" y2="3224.2393">
					<stop  offset="0" style="stop-color:#4F52FF"/>
					<stop  offset="1" style="stop-color:#4042E2"/>
				</linearGradient>
				<path style="fill:url(#SVGID_00000077320289754690660810000007038208330787555213_);" d="M2737.65,3184.563
					c-0.575-21.231,3.553-40.996,12.383-59.293c0.252-0.838,0.554-1.643,0.822-2.471c-10.958-3.393-25.114-7.992-43.711-14.301
					c-136.264-46.633-240.217-93.719-339.429-147.923c-38.543-21.057-82.365-6.945-94.704,38.661
					c-11.014,40.712,13.173,75.47,49.882,87.685c109.823,36.545,52.642,26.395,88.51,37.938
					c96.326,29.787,216.193,56.918,326.476,64.326C2737.796,3187.644,2737.702,3186.101,2737.65,3184.563z"/>
				
					<linearGradient id="SVGID_00000168101333820689453390000006763182359437975739_" gradientUnits="userSpaceOnUse" x1="2583.5803" y1="2786.0225" x2="2579.9136" y2="2466.9839">
					<stop  offset="0" style="stop-color:#FEBBBA"/>
					<stop  offset="1" style="stop-color:#FF928E"/>
				</linearGradient>
				<path style="fill:url(#SVGID_00000168101333820689453390000006763182359437975739_);" d="M2499.414,2629.518
					c0,0,14.655,63.507,85.805,62.188c72.468-1.319,78.929-62.396,78.929-62.396l-47.338-10.13l-3.956-52.746l-71.207,5.275
					l-1.318,50.108L2499.414,2629.518z"/>
				
					<linearGradient id="SVGID_00000159460104167909273590000004264274649633927053_" gradientUnits="userSpaceOnUse" x1="2776.1665" y1="1829.0508" x2="2787.5891" y2="1551.4314" gradientTransform="matrix(0.987 0.1608 -0.1608 0.987 126.9837 357.2448)">
					<stop  offset="0" style="stop-color:#FEBBBA"/>
					<stop  offset="1" style="stop-color:#FF928E"/>
				</linearGradient>
				<path style="fill:url(#SVGID_00000159460104167909273590000004264274649633927053_);" d="M2551.643,2416.987
					c0,0-81.603,158.07,15.197,196.419c68.279,27.05,111.088-104.97,98.319-140.728c-19.743-55.288-32.745-48.727-32.745-48.727
					L2551.643,2416.987z"/>
				
					<linearGradient id="SVGID_00000106127740649336067990000003417111538802677408_" gradientUnits="userSpaceOnUse" x1="2371.3596" y1="2787.8894" x2="2657.4546" y2="2329.1516">
					<stop  offset="0" style="stop-color:#4F52FF"/>
					<stop  offset="1" style="stop-color:#4042E2"/>
				</linearGradient>
				<path style="fill:url(#SVGID_00000106127740649336067990000003417111538802677408_);" d="M2684.795,2402.604
					c40.313,11.08,5.86,98.511-54.834,77.836c-60.695-20.675-84.545-20.374-94.002-3.707c-9.458,16.666-11.49,75.852-32.011,46.598
					c-22.499-32.072-35.044-96.446-7.458-117.198c24.653-18.546,30.406-47.302,59.976-46.305
					c39.249,1.323,69.602-16.075,87.318-3.528C2664.129,2370.709,2655.132,2394.451,2684.795,2402.604z"/>
				
					<linearGradient id="SVGID_00000150806337947882468900000013504179351628185761_" gradientUnits="userSpaceOnUse" x1="2158.9707" y1="3176.5352" x2="2176.8708" y2="2741.4795" gradientTransform="matrix(0.9911 -0.1329 0.1329 0.9911 -26.0254 -216.2621)">
					<stop  offset="0" style="stop-color:#FEBBBA"/>
					<stop  offset="1" style="stop-color:#FF928E"/>
				</linearGradient>
				<path style="fill:url(#SVGID_00000150806337947882468900000013504179351628185761_);" d="M2532.226,2490.325
					c0,0-17.404-18.726-20.189,3.844c-2.786,22.569,6.157,51.637,16.636,35.704
					C2539.151,2513.939,2532.226,2490.325,2532.226,2490.325z"/>
			</g>
			<path style="fill:#91B3FA;" d="M2601.546,2916.21c1.686,11.394-4.418,21.737-15.813,23.423
				c-11.395,1.686-21.999-6.184-23.685-17.578c-1.686-11.394,3.53-22.711,14.924-24.397
				C2588.367,2895.972,2599.86,2904.816,2601.546,2916.21z"/>
		</g>
	</g>
</g>
</svg>
