<?xml version="1.0" encoding="utf-8"?>
<!-- Generator: Adobe Illustrator 27.5.0, SVG Export Plug-In . SVG Version: 6.00 Build 0)  -->
<svg version="1.1" xmlns="http://www.w3.org/2000/svg" xmlns:xlink="http://www.w3.org/1999/xlink" x="0px" y="0px"
	 viewBox="0 0 500 500" style="enable-background:new 0 0 500 500;" xml:space="preserve">
<g id="BACKGROUND">
	<rect id="XMLID_1_" style="fill:#FFFFFF;" width="500" height="500"/>
</g>
<g id="OBJECT">
	<g id="XMLID_127_">
		<g id="XMLID_343_">
			<path id="XMLID_37_" style="fill:#BFBEF7;" d="M322.589,297.227H181.66c-9.024,0-16.34-7.316-16.34-16.34V67.792
				c0-9.024,7.316-16.34,16.34-16.34h140.928c9.024,0,16.34,7.316,16.34,16.34v213.095
				C338.928,289.911,331.613,297.227,322.589,297.227z"/>
			<path id="XMLID_66_" style="fill:#9092C2;" d="M329.186,171.161H179.384v-4.914c0-4.644,3.764-8.408,8.408-8.408h132.985
				c4.644,0,8.408,3.765,8.408,8.408V171.161z"/>
			<path id="XMLID_70_" style="fill:#FFFFFF;" d="M320.261,216.682H188.309c-4.929,0-8.924-3.996-8.924-8.924v-36.597h149.802
				v36.597C329.186,212.686,325.19,216.682,320.261,216.682z"/>
			<path id="XMLID_74_" style="fill:#9092C2;" d="M329.053,237.668H179.252v-4.914c0-4.644,3.764-8.408,8.408-8.408h132.985
				c4.644,0,8.408,3.764,8.408,8.408V237.668z"/>
			<path id="XMLID_73_" style="fill:#FFFFFF;" d="M320.129,283.19H188.176c-4.929,0-8.924-3.996-8.924-8.924v-36.597h149.801v36.597
				C329.053,279.194,325.058,283.19,320.129,283.19z"/>
			<rect id="XMLID_202_" x="187.92" y="244.739" style="fill:#BFBEF7;" width="133.413" height="2.601"/>
			<rect id="XMLID_199_" x="187.92" y="252.072" style="fill:#BFBEF7;" width="133.413" height="2.601"/>
			<rect id="XMLID_196_" x="187.92" y="259.406" style="fill:#BFBEF7;" width="133.413" height="2.6"/>
			<rect id="XMLID_193_" x="187.92" y="266.739" style="fill:#BFBEF7;" width="133.413" height="2.601"/>
			<g id="XMLID_71_">
				<path id="XMLID_50_" style="fill:#FFFFFF;" d="M245.151,146.062h-57.792c-2.091,0-3.786-1.695-3.786-3.786V76.843
					c0-2.091,1.695-3.785,3.786-3.785h57.792c2.091,0,3.786,1.695,3.786,3.785v65.434
					C248.937,144.367,247.242,146.062,245.151,146.062z"/>
				<path id="XMLID_59_" style="fill:#CE6B4C;" d="M239.559,116.276c-1.127-0.805-14.571-5.665-14.571-5.665l-8.733,3.408
					l-8.733-3.408c0,0-13.444,4.86-14.571,5.665c-1.127,0.805,2.093,29.785,2.093,29.785h20.927h0.567h20.927
					C237.466,146.062,240.686,117.081,239.559,116.276z"/>
				<path id="XMLID_55_" style="fill:#F28F8F;" d="M222.005,100.713l-5.466,0.644l-5.466-0.644c0,0,0.345,6.655-1.323,10.036
					l6.789,3.381l6.789-3.381C221.659,107.368,222.005,100.713,222.005,100.713z"/>
				<path id="XMLID_53_" style="fill:#FFB2AE;" d="M228.429,91.97c-0.26-2.48-2.073-2.083-2.659-1.886v-4.527h-9.082h-9.082v4.527
					c-0.586-0.196-2.399-0.594-2.659,1.886c-0.284,2.706,1.724,3.925,2.659,4.342v0.08c0,5.171,4.037,11.031,9.082,11.031
					c4.835,0,9.082-5.86,9.082-11.031v-0.08C226.705,95.894,228.713,94.675,228.429,91.97z"/>
				<path id="XMLID_57_" style="fill:#686DA4;" d="M230.815,83.202c-0.841,0.042-2.359-0.294-2.359-0.294
					c1.173-0.294,1.518-2.397,1.518-2.397c-2.439,0.673-13.287-3.069-18.417-2.145c-5.13,0.925-4.667,3.406-4.667,3.406
					c-5.214,1.976-1.586,8.962-1.586,8.962c0.726-1.213,2.301-0.651,2.301-0.651l0.799,3.757c0,0,1.443-2.465,0.869-4.848
					c0-0.003-0.001-0.004-0.002-0.007c1.538-1.484,1.698-3.428,1.698-3.428l12.783,0.042c-0.153,1.183,0.401,2.348,0.967,3.195
					c-0.106,0.151-0.202,0.376-0.28,0.702c-0.575,2.384,0.869,4.848,0.869,4.848l1.18-4.389c0.936-0.038,1.376,0.491,1.376,0.491
					c1.715-1.543,1.481-4.89,1.481-4.89C230.773,85.052,230.815,83.202,230.815,83.202z"/>
				<polygon id="XMLID_51_" style="fill:#E9AB72;" points="210.815,106.777 216.539,114.13 212.433,117.967 207.523,110.611 				"/>
				<polygon id="XMLID_54_" style="fill:#E9AB72;" points="222.262,106.777 216.539,114.13 220.645,117.967 225.555,110.611 				"/>
				<path id="XMLID_56_" style="fill:#E9AB72;" d="M192.952,116.276c0,0-4.991,3.243-4.991,12.06l-1.288,17.726h8.372
					L192.952,116.276z"/>
				<path id="XMLID_58_" style="fill:#E9AB72;" d="M239.321,116.276c0,0,4.991,3.243,4.991,12.06l1.288,17.726h-8.372
					L239.321,116.276z"/>
			</g>
			<polygon id="XMLID_52_" style="fill:#FFFFFF;" points="262,97.399 263.951,101.351 268.313,101.985 265.156,105.062 
				265.901,109.406 262,107.355 258.099,109.406 258.844,105.062 255.687,101.985 260.049,101.351 			"/>
			<polygon id="XMLID_61_" style="fill:#FFFFFF;" points="276.833,97.399 278.784,101.351 283.146,101.985 279.99,105.062 
				280.735,109.406 276.833,107.355 272.932,109.406 273.677,105.062 270.521,101.985 274.883,101.351 			"/>
			<polygon id="XMLID_62_" style="fill:#FFFFFF;" points="291.667,97.399 293.617,101.351 297.979,101.985 294.823,105.062 
				295.568,109.406 291.667,107.355 287.765,109.406 288.51,105.062 285.354,101.985 289.716,101.351 			"/>
			<polygon id="XMLID_63_" style="fill:#FFFFFF;" points="306.5,97.399 308.451,101.351 312.813,101.985 309.656,105.062 
				310.401,109.406 306.5,107.355 302.599,109.406 303.344,105.062 300.187,101.985 304.549,101.351 			"/>
			<polygon id="XMLID_64_" style="fill:#FFFFFF;" points="321.333,97.399 323.284,101.351 327.646,101.985 324.49,105.062 
				325.235,109.406 321.333,107.355 317.432,109.406 318.177,105.062 315.021,101.985 319.383,101.351 			"/>
			<g id="XMLID_60_">
				<path id="XMLID_144_" style="fill:#E6E6E7;" d="M322.685,147.471h-61.619c-2.241,0-4.065-1.824-4.065-4.065v-26.971
					c0-2.242,1.824-4.066,4.065-4.066h61.619c2.241,0,4.065,1.824,4.065,4.066v26.971
					C326.75,145.648,324.926,147.471,322.685,147.471z M261.065,114.37c-1.139,0-2.065,0.927-2.065,2.066v26.971
					c0,1.139,0.927,2.065,2.065,2.065h61.619c1.139,0,2.065-0.927,2.065-2.065v-26.971c0-1.139-0.927-2.066-2.065-2.066H261.065z"/>
			</g>
			<path id="XMLID_65_" style="fill:#E6E6E7;" d="M318.805,122.36h-54.13c-0.43,0-0.779-0.349-0.779-0.779v-0.28
				c0-0.43,0.349-0.779,0.779-0.779h54.13c0.43,0,0.779,0.349,0.779,0.779v0.28C319.583,122.011,319.235,122.36,318.805,122.36z"/>
			<path id="XMLID_67_" style="fill:#E6E6E7;" d="M318.805,127.735h-54.13c-0.43,0-0.779-0.349-0.779-0.779v-0.28
				c0-0.43,0.349-0.779,0.779-0.779h54.13c0.43,0,0.779,0.349,0.779,0.779v0.28C319.583,127.386,319.235,127.735,318.805,127.735z"
				/>
			<path id="XMLID_69_" style="fill:#E6E6E7;" d="M318.805,133.12h-54.13c-0.43,0-0.779-0.349-0.779-0.779v-0.28
				c0-0.43,0.349-0.779,0.779-0.779h54.13c0.43,0,0.779,0.349,0.779,0.779v0.28C319.583,132.771,319.235,133.12,318.805,133.12z"/>
			<path id="XMLID_68_" style="fill:#E6E6E7;" d="M318.805,138.495h-54.13c-0.43,0-0.779-0.349-0.779-0.779v-0.28
				c0-0.43,0.349-0.779,0.779-0.779h54.13c0.43,0,0.779,0.349,0.779,0.779v0.28C319.583,138.146,319.235,138.495,318.805,138.495z"
				/>
			
				<ellipse id="XMLID_72_" transform="matrix(0.2286 -0.9735 0.9735 0.2286 144.4165 347.7831)" style="fill:#FFFFFF;" cx="291.667" cy="82.762" rx="11.583" ry="11.583"/>
			<polygon id="XMLID_75_" style="fill:#E5A872;" points="279.533,82.551 283.39,78.948 288.318,83.718 299.647,70.938 
				303.8,75.151 289.086,92.001 			"/>
			<rect id="XMLID_128_" x="187.92" y="177.817" style="fill:#BFBEF7;" width="133.413" height="2.6"/>
			<rect id="XMLID_134_" x="187.92" y="185.15" style="fill:#BFBEF7;" width="133.413" height="2.6"/>
			<rect id="XMLID_145_" x="187.92" y="192.483" style="fill:#BFBEF7;" width="133.413" height="2.601"/>
			<rect id="XMLID_184_" x="187.92" y="199.817" style="fill:#BFBEF7;" width="133.413" height="2.6"/>
			<path id="XMLID_166_" style="fill:#575C96;" d="M165.32,63.933h173.15v-9.996c0-7.171-5.814-12.985-12.985-12.985h-147.18
				c-7.171,0-12.985,5.814-12.985,12.985V63.933z"/>
		</g>
		<g id="XMLID_345_">
			<path id="XMLID_40_" style="fill:#DEDEFA;" d="M137.273,277.882H44.289c-8.094,0-14.656-6.562-14.656-14.656V121.83
				c0-8.094,6.562-14.656,14.656-14.656h92.984c8.094,0,14.656,6.562,14.656,14.656v141.395
				C151.929,271.32,145.367,277.882,137.273,277.882z"/>
			<path id="XMLID_101_" style="fill:#BFBEF7;" d="M142.406,192.192H39.246v-3.384c0-3.198,2.592-5.79,5.79-5.79h91.579
				c3.198,0,5.79,2.592,5.79,5.79V192.192z"/>
			<path id="XMLID_100_" style="fill:#FFFFFF;" d="M136.26,223.54H45.392c-3.394,0-6.146-2.751-6.146-6.146v-25.202h103.159v25.202
				C142.406,220.788,139.654,223.54,136.26,223.54z"/>
			<path id="XMLID_99_" style="fill:#BFBEF7;" d="M142.315,237.992H39.155v-3.384c0-3.198,2.592-5.79,5.79-5.79h91.579
				c3.198,0,5.79,2.592,5.79,5.79V237.992z"/>
			<path id="XMLID_98_" style="fill:#FFFFFF;" d="M136.169,269.34H45.301c-3.394,0-6.146-2.751-6.146-6.146v-25.202h103.159v25.202
				C142.315,266.588,139.563,269.34,136.169,269.34z"/>
			<g id="XMLID_88_">
				<path id="XMLID_97_" style="fill:#FFFFFF;" d="M86.839,177.817H42.436c-1.606,0-2.909-1.302-2.909-2.908v-50.274
					c0-1.606,1.302-2.909,2.909-2.909h44.403c1.606,0,2.909,1.302,2.909,2.909v50.274C89.747,176.514,88.445,177.817,86.839,177.817
					z"/>
				<path id="XMLID_96_" style="fill:#9092C2;" d="M82.542,154.932c-0.866-0.618-11.195-4.353-11.195-4.353l-6.71,2.619
					l-6.709-2.619c0,0-10.329,3.734-11.195,4.353c-0.866,0.618,1.608,22.885,1.608,22.885H64.42h0.436h16.079
					C80.934,177.817,83.408,155.55,82.542,154.932z"/>
				<path id="XMLID_95_" style="fill:#C3C6E2;" d="M69.055,142.974l-4.199,0.495l-4.199-0.495c0,0,0.265,5.113-1.017,7.711
					l5.216,2.598l5.216-2.598C68.789,148.087,69.055,142.974,69.055,142.974z"/>
				<path id="XMLID_94_" style="fill:#DEDFF3;" d="M73.991,136.256c-0.2-1.906-1.593-1.6-2.043-1.449v-3.478h-6.978h-6.978v3.478
					c-0.45-0.151-1.843-0.457-2.043,1.449c-0.218,2.079,1.324,3.016,2.043,3.336v0.061c0,3.973,3.101,8.475,6.978,8.475
					c3.715,0,6.978-4.502,6.978-8.475v-0.061C72.666,139.272,74.209,138.335,73.991,136.256z"/>
				<polygon id="XMLID_92_" style="fill:#ACAAD1;" points="60.458,147.633 64.855,153.283 61.701,156.231 57.928,150.579 				"/>
				<polygon id="XMLID_91_" style="fill:#ACAAD1;" points="69.253,147.633 64.855,153.283 68.01,156.231 71.783,150.579 				"/>
				<path id="XMLID_90_" style="fill:#ACAAD1;" d="M46.733,154.932c0,0-3.835,2.492-3.835,9.266l-0.99,13.619h6.432L46.733,154.932z
					"/>
				<path id="XMLID_89_" style="fill:#ACAAD1;" d="M82.359,154.932c0,0,3.835,2.492,3.835,9.266l0.99,13.619h-6.433L82.359,154.932z
					"/>
				<path id="XMLID_93_" style="fill:#9092C2;" d="M57.773,134.94l0.77,2.219c0,0,1.551-3.125,0.902-5.748c0,0,3.105-0.085,5.408,0
					c2.303,0.085,5.612,0,5.612,0s-0.507,3.93,1.015,5.071c0,0,1.353-2.406,1.395-5.071c0.042-2.665-1.311-4.399-3.551-5.118
					c-2.241-0.719-9.742-1.184-11.551,1.945C55.964,131.367,57.773,134.94,57.773,134.94z"/>
			</g>
			<polygon id="XMLID_87_" style="fill:#BFBEF7;" points="96.139,141.397 97.482,144.119 100.486,144.555 98.313,146.674 
				98.826,149.665 96.139,148.253 93.452,149.665 93.965,146.674 91.792,144.555 94.796,144.119 			"/>
			<polygon id="XMLID_86_" style="fill:#BFBEF7;" points="106.354,141.397 107.697,144.119 110.701,144.555 108.527,146.674 
				109.04,149.665 106.354,148.253 103.667,149.665 104.18,146.674 102.007,144.555 105.01,144.119 			"/>
			<g id="XMLID_82_">
				<g id="XMLID_187_">
					<path id="XMLID_188_" style="fill:#BFBEF7;" d="M137.929,176.19H95.496c-1.716,0-3.111-1.396-3.111-3.111v-18.573
						c0-1.716,1.396-3.111,3.111-3.111h42.433c1.716,0,3.111,1.395,3.111,3.111v18.573
						C141.04,174.794,139.645,176.19,137.929,176.19z M95.496,153.395c-0.613,0-1.111,0.499-1.111,1.111v18.573
						c0,0.613,0.498,1.111,1.111,1.111h42.433c0.613,0,1.111-0.499,1.111-1.111v-18.573c0-0.613-0.498-1.111-1.111-1.111H95.496z"/>
				</g>
			</g>
			<path id="XMLID_81_" style="fill:#BFBEF7;" d="M135.257,158.586H97.981c-0.296,0-0.536-0.24-0.536-0.536v-0.193
				c0-0.296,0.24-0.536,0.536-0.536h37.276c0.296,0,0.536,0.24,0.536,0.536v0.193C135.793,158.346,135.553,158.586,135.257,158.586z
				"/>
			<path id="XMLID_80_" style="fill:#BFBEF7;" d="M135.257,162.288H97.981c-0.296,0-0.536-0.24-0.536-0.536v-0.193
				c0-0.296,0.24-0.536,0.536-0.536h37.276c0.296,0,0.536,0.24,0.536,0.536v0.193C135.793,162.047,135.553,162.288,135.257,162.288z
				"/>
			<path id="XMLID_79_" style="fill:#BFBEF7;" d="M135.257,165.996H97.981c-0.296,0-0.536-0.24-0.536-0.536v-0.193
				c0-0.296,0.24-0.536,0.536-0.536h37.276c0.296,0,0.536,0.24,0.536,0.536v0.193C135.793,165.756,135.553,165.996,135.257,165.996z
				"/>
			<path id="XMLID_78_" style="fill:#BFBEF7;" d="M135.257,169.697H97.981c-0.296,0-0.536-0.24-0.536-0.536v-0.193
				c0-0.296,0.24-0.536,0.536-0.536h37.276c0.296,0,0.536,0.24,0.536,0.536v0.193C135.793,169.457,135.553,169.697,135.257,169.697z
				"/>
			
				<ellipse id="XMLID_77_" transform="matrix(0.1606 -0.987 0.987 0.1606 -27.2045 224.5757)" style="fill:#FFFFFF;" cx="118.439" cy="128.283" rx="9.233" ry="9.233"/>
			<polygon id="XMLID_168_" style="fill:#BFBEF7;" points="129.054,122.088 123.521,117.119 118.439,122.749 113.357,117.119 
				107.823,122.088 113.387,128.346 107.823,134.51 113.524,139.554 118.439,134.027 123.354,139.554 129.054,134.51 
				123.49,128.346 			"/>
		</g>
		<g id="XMLID_344_">
			<path id="XMLID_126_" style="fill:#DEDEFA;" d="M462.229,277.882h-92.984c-8.095,0-14.656-6.562-14.656-14.656V121.83
				c0-8.094,6.562-14.656,14.656-14.656h92.984c8.094,0,14.656,6.562,14.656,14.656v141.395
				C476.885,271.32,470.324,277.882,462.229,277.882z"/>
			<path id="XMLID_125_" style="fill:#BFBEF7;" d="M467.362,192.192H364.203v-3.384c0-3.198,2.592-5.79,5.79-5.79h91.579
				c3.198,0,5.79,2.592,5.79,5.79V192.192z"/>
			<path id="XMLID_124_" style="fill:#FFFFFF;" d="M461.217,223.54h-90.868c-3.394,0-6.146-2.751-6.146-6.146v-25.202h103.159
				v25.202C467.362,220.788,464.611,223.54,461.217,223.54z"/>
			<path id="XMLID_123_" style="fill:#BFBEF7;" d="M467.271,237.992H364.112v-3.384c0-3.198,2.592-5.79,5.79-5.79h91.579
				c3.198,0,5.79,2.592,5.79,5.79V237.992z"/>
			<path id="XMLID_122_" style="fill:#FFFFFF;" d="M461.126,269.34h-90.868c-3.394,0-6.146-2.751-6.146-6.146v-25.202h103.159
				v25.202C467.271,266.588,464.52,269.34,461.126,269.34z"/>
			<g id="XMLID_112_">
				<path id="XMLID_121_" style="fill:#FFFFFF;" d="M412.013,177.817H367.61c-1.606,0-2.909-1.302-2.909-2.908v-50.274
					c0-1.606,1.302-2.909,2.909-2.909h44.403c1.606,0,2.909,1.302,2.909,2.909v50.274
					C414.922,176.514,413.62,177.817,412.013,177.817z"/>
				<path id="XMLID_167_" style="fill:#686DA4;" d="M398.728,132.869c-1.618-5.01-8.033-5.534-8.805-5.579l0-0.004
					c0,0-0.026,0.001-0.039,0.002c-0.013-0.001-0.039-0.002-0.039-0.002l0,0.004c-0.772,0.045-7.186,0.569-8.805,5.579
					c-1.723,5.333-1.12,24.452-1.12,24.452s7.766-0.387,7.705-9.295c-0.051-7.359,1.244-12.325,2.259-13.833
					c1.015,1.508,2.198,6.65,2.147,14.009c-0.061,8.907,7.816,9.118,7.816,9.118S400.45,138.202,398.728,132.869z"/>
				<path id="XMLID_120_" style="fill:#ACAAD1;" d="M405.707,154.121c-0.866-0.618-9.404-3.542-9.404-3.542l-6.71,2.619l-6.71-2.619
					c0,0-7.96,2.692-8.826,3.311s3.358,23.927,3.358,23.927h11.96h0.436h13.271C403.083,177.817,406.573,154.74,405.707,154.121z"/>
				<path id="XMLID_119_" style="fill:#CECED8;" d="M392.188,145.077l-2.398-0.649l-2.446,0.868c0,0-0.031,3.377-2.307,5.706
					l4.752,2.367l4.753-2.367C392.531,148.899,392.188,145.077,392.188,145.077z"/>
				<path id="XMLID_118_" style="fill:#E6E6E7;" d="M398.113,137.857c-0.182-1.736-1.451-1.458-1.861-1.32v-3.169h-6.358h-6.358
					v3.169c-0.41-0.137-1.679-0.416-1.861,1.32c-0.199,1.894,1.207,2.747,1.861,3.039v0.056c0,3.62,4.006,7.722,6.358,7.722
					c2.732,0,6.358-4.102,6.358-7.722v-0.056C396.906,140.604,398.311,139.751,398.113,137.857z"/>
				<path id="XMLID_114_" style="fill:#9092C2;" d="M374.189,153.921c0,0-3.835,2.492-3.835,9.266l-0.99,14.63h8.052
					L374.189,153.921z"/>
				<path id="XMLID_113_" style="fill:#9092C2;" d="M405.566,153.921c0,0,3.835,2.492,3.835,9.266l0.99,14.63h-7.307
					L405.566,153.921z"/>
				<path id="XMLID_76_" style="fill:#9092C2;" d="M385.809,148.026l-2.925,2.553c0,0-1.91,5.207,1.228,6.54
					c3.138,1.333,5.7-3.836,5.7-3.836L385.809,148.026z"/>
				<path id="XMLID_115_" style="fill:#9092C2;" d="M393.746,147.828l2.948,2.751c0,0,1.91,5.207-1.228,6.54
					c-3.138,1.333-5.7-3.836-5.7-3.836L393.746,147.828z"/>
				<path id="XMLID_116_" style="fill:#686DA4;" d="M395.167,133.911c0,0-1.526,1.448-5.11,1.948
					c-3.583,0.5-5.724,0.406-5.724,0.406s0.209,3.938-1.375,5.396c-1.583,1.458-2.69-4.625-1.303-7.292
					c1.387-2.667,11.387-3.833,11.637-3.833s1.625,0.417,1.625,0.417s2.667,1.014,3.417,5.257c0.75,4.243-1.667,6.094-1.667,6.094
					S394.833,138.161,395.167,133.911z"/>
				<path id="XMLID_289_" style="fill:#9092C2;" d="M394.777,138.218h-3.253c-0.554,0-1.004,0.45-1.004,1.003v0.153h-0.927v-0.043
					c0-0.553-0.45-1.003-1.004-1.003h-3.253c-0.554,0-1.004,0.45-1.004,1.003v0.774c0,0.553,0.45,1.003,1.004,1.003h3.253
					c0.554,0,1.004-0.45,1.004-1.003v-0.184h0.927v0.075c0,0.553,0.45,1.003,1.004,1.003h3.253c0.554,0,1.004-0.45,1.004-1.003
					v-0.774C395.781,138.668,395.331,138.218,394.777,138.218z M389.094,140.105c0,0.277-0.226,0.503-0.504,0.503h-3.253
					c-0.278,0-0.504-0.226-0.504-0.503v-0.774c0-0.277,0.226-0.503,0.504-0.503h3.253c0.278,0,0.504,0.226,0.504,0.503V140.105z
					 M395.281,139.996c0,0.277-0.226,0.503-0.504,0.503h-3.253c-0.278,0-0.504-0.226-0.504-0.503v-0.774
					c0-0.277,0.226-0.503,0.504-0.503h3.253c0.278,0,0.504,0.226,0.504,0.503V139.996z"/>
			</g>
			<polygon id="XMLID_111_" style="fill:#BFBEF7;" points="421.096,141.397 422.439,144.119 425.443,144.555 423.269,146.674 
				423.782,149.665 421.096,148.253 418.409,149.665 418.922,146.674 416.749,144.555 419.752,144.119 			"/>
			<polygon id="XMLID_110_" style="fill:#BFBEF7;" points="431.31,141.397 432.654,144.119 435.658,144.555 433.484,146.674 
				433.997,149.665 431.31,148.253 428.624,149.665 429.137,146.674 426.963,144.555 429.967,144.119 			"/>
			<polygon id="XMLID_109_" style="fill:#BFBEF7;" points="441.525,141.397 442.868,144.119 445.872,144.555 443.699,146.674 
				444.212,149.665 441.525,148.253 438.839,149.665 439.352,146.674 437.178,144.555 440.182,144.119 			"/>
			<g id="XMLID_108_">
				<path id="XMLID_117_" style="fill:#BFBEF7;" d="M462.886,176.19h-42.434c-1.716,0-3.111-1.396-3.111-3.111v-18.573
					c0-1.716,1.396-3.111,3.111-3.111h42.434c1.715,0,3.11,1.395,3.11,3.111v18.573C465.996,174.794,464.601,176.19,462.886,176.19z
					 M420.452,153.395c-0.612,0-1.111,0.499-1.111,1.111v18.573c0,0.613,0.499,1.111,1.111,1.111h42.434
					c0.612,0,1.11-0.499,1.11-1.111v-18.573c0-0.613-0.498-1.111-1.11-1.111H420.452z"/>
			</g>
			<path id="XMLID_107_" style="fill:#BFBEF7;" d="M460.214,158.586h-37.276c-0.296,0-0.536-0.24-0.536-0.536v-0.193
				c0-0.296,0.24-0.536,0.536-0.536h37.276c0.296,0,0.536,0.24,0.536,0.536v0.193C460.75,158.346,460.51,158.586,460.214,158.586z"
				/>
			<path id="XMLID_106_" style="fill:#BFBEF7;" d="M460.214,162.288h-37.276c-0.296,0-0.536-0.24-0.536-0.536v-0.193
				c0-0.296,0.24-0.536,0.536-0.536h37.276c0.296,0,0.536,0.24,0.536,0.536v0.193C460.75,162.047,460.51,162.288,460.214,162.288z"
				/>
			<path id="XMLID_105_" style="fill:#BFBEF7;" d="M460.214,165.996h-37.276c-0.296,0-0.536-0.24-0.536-0.536v-0.193
				c0-0.296,0.24-0.536,0.536-0.536h37.276c0.296,0,0.536,0.24,0.536,0.536v0.193C460.75,165.756,460.51,165.996,460.214,165.996z"
				/>
			<path id="XMLID_104_" style="fill:#BFBEF7;" d="M460.214,169.697h-37.276c-0.296,0-0.536-0.24-0.536-0.536v-0.193
				c0-0.296,0.24-0.536,0.536-0.536h37.276c0.296,0,0.536,0.24,0.536,0.536v0.193C460.75,169.457,460.51,169.697,460.214,169.697z"
				/>
			
				<ellipse id="XMLID_103_" transform="matrix(0.2307 -0.973 0.973 0.2307 214.9673 528.4506)" style="fill:#FFFFFF;" cx="441.668" cy="128.283" rx="9.233" ry="9.233"/>
			<polygon id="XMLID_102_" style="fill:#BFBEF7;" points="452.284,122.088 446.75,117.119 441.668,122.749 436.587,117.119 
				431.053,122.088 436.617,128.346 431.053,134.51 436.754,139.554 441.668,134.027 446.583,139.554 452.284,134.51 
				446.72,128.346 			"/>
		</g>
	</g>
	<g id="XMLID_378_">
		<g id="XMLID_373_">
			<g id="XMLID_38_">
				<path id="XMLID_132_" style="fill:#26345B;" d="M179.403,454.988c-0.089,0-0.18-0.008-0.271-0.024
					c-0.815-0.148-1.355-0.93-1.206-1.744l16.724-91.804h13.798l18.601,91.153c0.166,0.812-0.358,1.604-1.17,1.77
					c-0.814,0.165-1.604-0.358-1.77-1.17l-18.11-88.753h-8.846l-16.276,89.341C180.745,454.482,180.114,454.988,179.403,454.988z"/>
			</g>
			<g id="XMLID_10_">
				<path id="XMLID_131_" style="fill:#26345B;" d="M215.661,456.744c-0.089,0-0.18-0.008-0.271-0.025
					c-0.815-0.148-1.355-0.93-1.206-1.744l16.724-91.804h13.745l22.719,90.791c0.201,0.804-0.287,1.618-1.091,1.819
					c-0.806,0.2-1.618-0.287-1.819-1.091l-22.15-88.52h-8.9l-16.276,89.341C217.003,456.237,216.372,456.744,215.661,456.744z"/>
			</g>
			<path id="XMLID_340_" style="fill:#EF8A5E;" d="M202.42,453.702c-3.92,0.17-9.67,0.58-12.42,0.5c-2.75-0.08-5.08-0.08-5.25-1.25
				c-0.1-0.71,0.71-4.02,1.36-6.53c0.44-1.66,0.81-2.97,0.81-2.97l5.08,1.75c0,0,1.49,1.38,4.33,2.75c0.23,0.11,0.49,0.24,0.77,0.39
				C200.27,449.982,206.01,453.542,202.42,453.702z"/>
			<path id="XMLID_27_" style="fill:#EF8A5E;" d="M192.486,400.786c0,0-5.481,7.165-5.15,18.332
				c0.331,11.168-1.336,27.334-1.336,27.334h6.486c0,0,9.318-44.897,9.583-47C202.333,397.349,192.486,400.786,192.486,400.786z"/>
			<path id="XMLID_23_" style="fill:#FFA16F;" d="M206.5,384.452c0,0,3.703,0.29,5.977,6.645c2.273,6.355-12.475,56.07-12.475,56.07
				l-5.085-4.799c0,0-0.925-19.335,2.583-30.583c3.508-11.248,3.75-11.083,3.75-11.083L206.5,384.452z"/>
			<path id="XMLID_332_" style="fill:#FFA16F;" d="M211.62,454.782c-0.62,1.09-3.74,1.67-7.86,0c-4.11-1.66-11.64-3.08-11.26-4.58
				c0.28-1.11,1.73-6.28,2.46-8.87c0.25-0.91,0.42-1.5,0.42-1.5s2.87-2.5,4.62,2.74c0.8,2.4,3.43,4.94,5.98,7.07
				C209.02,452.192,211.96,454.192,211.62,454.782z"/>
			<rect id="XMLID_20_" x="198.625" y="359.619" style="fill:#686DA4;" width="33.5" height="2.532"/>
			<rect id="XMLID_22_" x="231.458" y="359.619" style="fill:#686DA4;" width="8.208" height="2.532"/>
			<path id="XMLID_19_" style="fill:#EF8A5E;" d="M168.25,361.452c0,0,17.417,1.98,29.25,0.698l-0.221-4.188l-28.665-6.802
				L168.25,361.452z"/>
			<g id="XMLID_17_">
				<g id="XMLID_162_">
					<path id="XMLID_164_" style="fill:#26345B;" d="M124.969,456.285c-0.157,0-0.317-0.024-0.474-0.077
						c-0.786-0.262-1.211-1.111-0.949-1.896l16.815-50.484h13.482l16.98,50.479c0.264,0.785-0.159,1.636-0.944,1.9
						c-0.786,0.26-1.636-0.159-1.9-0.943l-16.293-48.436h-9.163l-16.131,48.432C126.183,455.888,125.598,456.285,124.969,456.285z"
						/>
				</g>
			</g>
			<rect id="XMLID_13_" x="175.232" y="362.151" style="fill:#C5C6F4;" width="79.435" height="4.482"/>
			<path id="XMLID_8_" style="fill:#FFA16F;" d="M161.626,300.885c0,0,0.405-2.663,2.203-3.352c1.798-0.689,1.977,0,1.977,0
				s0.516,0.87,0.516,4.058c0,3.189,0.29,6.378,0,10.262c-0.29,3.884-1.147,6.32-2.284,6.609c-1.137,0.29-2.413,0-2.413,0
				l-1.739,4.696l-3.827-1.218L161.626,300.885z"/>
			<path id="XMLID_7_" style="fill:#FFA16F;" d="M174.156,322.775c0,0,3.713,10.172,5.157,20.68
				c1.444,10.508,5.157,17.941,7.322,18.64c2.166,0.699,5.292-5.111,1.115-16.767c-2.145-5.987-7.793-24.313-7.793-24.313
				L174.156,322.775z"/>
			<path id="XMLID_4_" style="fill:#686DA4;" d="M138.594,336.702c1.093,7.311,6.031,28,7.031,32.5v10h25.75l-1.625-16.75
				l-0.758-33.368l-8.242-3.007l-11.625-3.75C149.125,322.327,136.875,325.202,138.594,336.702z"/>
			<path id="XMLID_5_" style="fill:#686DA4;" d="M147.313,319.515c0,0,10.188,2.125,12.063,3.375s1.875,3.688,1.875,3.688
				l-15.5-3.188L147.313,319.515z"/>
			<path id="XMLID_6_" style="fill:#686DA4;" d="M162.673,332.828c0,0-2.568,5.049,0.529,10.623
				c3.097,5.574,12.466,17.182,18.882,19.252c5.167,1.667,7.424-2.049,7.424-2.049c-0.343-3.951-4.924-4.284-20.191-31.198
				C167.892,326.945,163.499,330.079,162.673,332.828z"/>
			<path id="XMLID_11_" style="fill:#CE6B4C;" d="M145.625,376.937c0,0-5.125,13.515,2.625,23.765s53,0,53,0l5.25-16.25
				l-35.345-7.515H145.625z"/>
			<path id="XMLID_9_" style="fill:#26345B;" d="M156.602,291.368c0,0-5.643-2.01-10.204,1.855
				c-4.561,3.865-2.242,13.528-6.262,18.708c-4.02,5.179,0.32,8.677,0.32,8.677s0.298,5.547,6.792,5.972
				c6.493,0.425,10.745-3.672,11.75-8.233c0,0,2.164-0.618,2.087-5.489c-0.077-4.87-0.12-11.444,1.237-13.296
				c0.754-1.029,3.669-1.508,3.669-1.508S165.182,289.899,156.602,291.368z"/>
			<path id="XMLID_18_" style="fill:#FFA16F;" d="M175.87,316.859c-1.653-1.377-2.387-2.112-2.984-2.433
				c-0.597-0.321-1.699-1.056-2.525-0.872c-0.609,0.135-0.821-0.326-1.312-0.542l0,0c0,0-0.616-0.697-1.764-0.329
				c0,0-1.897,1.836-2.165,3.305c-0.268,1.469,1.671-0.111,2.331-1.18v0c0.016,0.021,0.035,0.046,0.052,0.068
				c-0.466,0.597-0.951,1.348-1.073,2.02c-0.233,1.275,1.298,0.112,2.027-0.867c0.757,0.903,1.551,1.905,1.385,2.3
				c-0.289,0.689-1.042,1.148-2.649,0.643c-1.607-0.505-2.938-0.092-1.377,0.757c1.561,0.849,3.259,1.951,5.142,2.272
				c1.882,0.321,3.606,1.159,3.606,1.159s5.592-1.671,5.393-2.144C179.757,320.542,177.523,318.236,175.87,316.859z"/>
			<g id="XMLID_16_">
				<g id="XMLID_159_">
					<path id="XMLID_160_" style="fill:#26345B;" d="M162.471,406.758h-25.263l-7.927-38.168c-0.169-0.811,0.353-1.604,1.163-1.773
						c0.811-0.172,1.605,0.352,1.774,1.164l7.431,35.777h19.065l-7.968-35.141c-0.183-0.809,0.323-1.611,1.131-1.795
						c0.804-0.184,1.611,0.322,1.794,1.131L162.471,406.758z"/>
				</g>
			</g>
			<path id="XMLID_15_" style="fill:#C5C6F4;" d="M121.25,366.702c4.5,7.25,15.625,0.667,20,1.583
				c4.375,0.917,15.033,4.667,18.517-1.333c3.483-6-4.371-18.315-17.517-20.25C123,343.869,116.75,359.452,121.25,366.702z"/>
			<polygon id="XMLID_12_" style="fill:#686DA4;" points="212.75,334.952 207,359.619 239.667,359.619 244.159,336.292 
				242.333,334.952 			"/>
			<polygon id="XMLID_24_" style="fill:#C5C6F4;" points="214.081,336.577 209.313,358.145 236.405,358.145 240.13,336.577 			"/>
			<path id="XMLID_14_" style="fill:#EF8A5E;" d="M196.583,358.244c0,0,7.083-2.875,8.708-3.292s3.042,0.333,4.208,1.042
				c1.167,0.708,1.708,1.5,2.583,2.083s0.167,1.167-0.917,0.958c-1.083-0.208-1.75-1.042-1.75-1.042l-1.75-1.038
				c0,0-1.667,1.038-2.292,1.622s0.583,0.542,2.458,1.208c1.875,0.667,2.708,0.083,3.25,0.917c0.542,0.833-0.583,1.042-3.167,1.042
				c-2.583,0-2.583,0-2.583,0s-3.458,0.98-7.833,0.407L196.583,358.244z"/>
			<polygon id="XMLID_21_" style="fill:#686DA4;" points="237.417,359.619 242.333,334.952 244.159,336.292 239.667,359.619 			"/>
			<path id="XMLID_41_" style="fill:#C5C6F4;" d="M192.742,409.958h-54.985c-1.799,0-3.258-1.458-3.258-3.258v-0.323
				c0-1.799,1.458-3.258,3.258-3.258h54.985c1.799,0,3.258,1.459,3.258,3.258v0.323C196,408.499,194.541,409.958,192.742,409.958z"
				/>
			<path id="XMLID_326_" style="fill:#25335A;" d="M211.62,454.782c-0.62,1.09-3.74,1.67-7.86,0c-4.11-1.66-11.64-3.08-11.26-4.58
				c0.28-1.11,1.73-6.28,2.46-8.87c0.42,0.1,0.99,0.42,1.66,1.24c1.5,1.82,2.5,5.08,5.19,6.26c1.76,0.77,3.31,0.85,4.17,0.81
				C209.02,452.192,211.96,454.192,211.62,454.782z"/>
			<path id="XMLID_318_" style="fill:#25335A;" d="M202.42,453.702c-3.92,0.17-9.67,0.58-12.42,0.5c-2.75-0.08-5.08-0.08-5.25-1.25
				c-0.1-0.71,0.71-4.02,1.36-6.53c0.45-0.09,2.27-0.33,4.72,1.11c1.88,1.1,4.7,1.08,6.27,0.81
				C200.27,449.982,206.01,453.542,202.42,453.702z"/>
			<g id="XMLID_372_">
				<path id="XMLID_169_" style="fill:#E5A872;" d="M124.913,285.452H97.58c-3.73,0-6.754,3.024-6.754,6.754v11.233
					c0,3.73,3.024,6.754,6.754,6.754h19.276l8.477,9.853v-9.875c3.533-0.218,6.333-3.144,6.333-6.732v-11.233
					C131.667,288.476,128.643,285.452,124.913,285.452z"/>
				<circle id="XMLID_26_" style="fill:#FFFFFF;" cx="101.375" cy="297.015" r="2.687"/>
				<circle id="XMLID_83_" style="fill:#FFFFFF;" cx="112.188" cy="297.015" r="2.687"/>
				<circle id="XMLID_250_" style="fill:#FFFFFF;" cx="121.563" cy="297.015" r="2.687"/>
			</g>
		</g>
		<g id="XMLID_371_">
			<g id="XMLID_165_">
				<path id="XMLID_29_" style="fill:#CE6B4C;" d="M309.625,293.077c0,0-0.25-2.875,3.625-5.125s5.75-2.75,11.5-3.875
					s13.75-0.125,13.75-0.125l10.25,6.25c0,0-0.375,16.375-3.125,27.125s0.18,25.912,0.18,25.912l-33.18,2.963L309.625,293.077z"/>
				<g id="XMLID_163_">
					<path id="XMLID_33_" style="fill:#232733;" d="M325.667,437.619c0,0-0.167,10.5,0,14c0.167,3.5,1.333,4-6.833,4
						c-8.167,0-14.667,1-17.333-1c-2.667-2,10.5-6.333,13.167-9.333c2.667-3,1.5-5.833,1.5-5.833L325.667,437.619z"/>
					<path id="XMLID_34_" style="fill:#232733;" d="M342.333,439.452c0,0,0.667,5.583,0,7.292c-0.667,1.708-4.5,3.25-6.333,4.083
						c-1.833,0.833-3.167,2.125-2.167,3.125s18.095,1.333,19.214,0.667c1.119-0.667-2.381-15.167-2.381-15.167H342.333z"/>
					<path id="XMLID_35_" style="fill:#CE6B4C;" d="M348.75,290.202c0,0,9.5,25.75,10.75,36.25S345,350.286,345,350.286
						l-4.895-12.333l7.395-11.5l-4.75-11L348.75,290.202z"/>
					<path id="XMLID_30_" style="fill:#26345B;" d="M325.176,253.99c0,0,5.44-0.147,9.116,2.058
						c3.676,2.205,4.484,5.072,4.484,5.072s1.103,1.323,1.323,4.117c0.221,2.793-5.734,11.615-5.734,11.615
						s-6.871,0.102-9.464-1.456c-2.593-1.558-6.414-13.272-6.414-13.272s-2.133-1.592-2.648-3.945l2.079-0.367
						c0,0-2.814-1.323-2.079-3.455L325.176,253.99z"/>
					<path id="XMLID_31_" style="fill:#FFA16F;" d="M334.365,276.852c0,0-6.65-0.413-9.464-1.456c0,0,1.745-1.19,2.184-3.249
						c0.439-2.058-0.733-5.514-2.277-5.44c-1.544,0.073-1.659,2.058-1.659,2.058l-0.974-3.684c0,0-0.357-2.349-1.944-2.957
						c-1.586-0.608-1.744,0-1.744,0s-0.455,0.767-0.455,3.58c0,2.813-0.256,5.626,0,9.053c0.256,3.427,1.012,5.575,2.014,5.831
						c1.003,0.256,3.199,0.418,3.199,0.418l0.463,3.725l3.376-1.074c0,0,5.148-0.336,7.353-0.336L334.365,276.852z"/>
					<path id="XMLID_32_" style="fill:#CE6B4C;" d="M312.113,289.452c0,0,4,6.125,1.125,15.125
						c-1.482,4.639-7.548,9.744-13.078,13.601c-5.439,3.794-12.842,2.987-17.342-1.885l-13.706-14.841l5.875-6.25l15.25,11.688
						C290.238,306.89,310.238,288.702,312.113,289.452z"/>
					<path id="XMLID_36_" style="fill:#25335A;" d="M312.625,344.702v5.583c0,0,1.125,47.667,1.375,55.417
						s-0.518,38.875-0.518,38.875h12.5c0,0,4.518-25.625,3.204-34.375c-0.763-5.082-1.203-6.926-1.203-11.926
						s3.414-34.391,3.414-34.391s6.354,39.817,6.354,45.317s3.547,37.542,3.547,37.542h11.75c0,0,0.453-35.792-1.797-43.292
						s-3.546-53.279-5.685-61.289L312.625,344.702z"/>
					<path id="XMLID_39_" style="fill:#FFA16F;" d="M274.389,295.84c0,0-4.412-5.45-5.275-6.825s-5.801-5.688-7.051-5.813
						s1.063,3.5,2.563,4.625c0,0-2.375,0.875-2.063,2.438c0,0-1.938,0.625-1.625,2.188c0,0-1.188,1.651-0.563,3.388
						c0.625,1.737,1.875,2.675,2.5,2.8s1.313,0,1.313,0s1.457,1.438,3.103,1.5l1.822,1.313L274.389,295.84z"/>
				</g>
				<path id="XMLID_28_" style="fill:#CE6B4C;" d="M321.298,284.042c0,0,3.23-2.202,8.381-2.977c5.15-0.775,7.057,0,7.057,0
					l0.772,2.977C337.508,284.042,316.556,287.681,321.298,284.042z"/>
			</g>
			<g id="XMLID_370_">
				<path id="XMLID_247_" style="fill:#E5A872;" d="M353.739,243.04h27.333c3.73,0,6.754,3.024,6.754,6.754v11.233
					c0,3.73-3.024,6.754-6.754,6.754h-19.276l-8.477,9.853v-9.875c-3.533-0.218-6.333-3.144-6.333-6.732v-11.233
					C346.985,246.064,350.009,243.04,353.739,243.04z"/>
				<circle id="XMLID_283_" style="fill:#FFFFFF;" cx="357.312" cy="254.673" r="2.688"/>
				<circle id="XMLID_267_" style="fill:#FFFFFF;" cx="368.124" cy="254.673" r="2.688"/>
				<circle id="XMLID_42_" style="fill:#FFFFFF;" cx="377.499" cy="254.673" r="2.688"/>
			</g>
		</g>
	</g>
	<g id="XMLID_377_">
		<path id="XMLID_133_" style="fill:#686DA4;" d="M481.697,459.048H25.803c-1.272,0-2.303-1.031-2.303-2.303v0
			c0-1.272,1.031-2.303,2.303-2.303h455.893c1.272,0,2.303,1.031,2.303,2.303v0C484,458.016,482.969,459.048,481.697,459.048z"/>
		<g id="XMLID_375_">
			<g id="XMLID_25_">
				<path id="XMLID_46_" style="fill:#26345B;" d="M423.98,445.88h-14.698V405.01h-3.191v40.871h-15.315
					c-0.881,0-1.721,0.378-2.305,1.038l-4.188,4.729c-0.809,0.913-0.551,2.343,0.527,2.915l0,0c0.778,0.413,1.739,0.233,2.314-0.435
					l4.517-5.247h14.451v4.155c0,0.881,0.714,1.595,1.595,1.595l0,0c0.881,0,1.595-0.714,1.595-1.595v-4.155h12.448l4.493,5.219
					c0.586,0.68,1.57,0.853,2.352,0.414l0,0c1.048-0.589,1.285-1.994,0.488-2.894L423.98,445.88z"/>
				<path id="XMLID_43_" style="fill:#6670AB;" d="M397.621,331.302l-2.78,73.708h40.5l6.268-72.088
					c0.662-7.615-5.341-14.162-12.984-14.162h-17.98C403.638,318.76,397.885,324.3,397.621,331.302z"/>
				<path id="XMLID_44_" style="fill:#ACAAD1;" d="M431.985,407.885h-61.288c-1.853,0-3.356-1.287-3.356-2.875l0,0
					c0-1.588,1.503-2.875,3.356-2.875h61.288c1.854,0,3.356,1.287,3.356,2.875l0,0C435.341,406.597,433.838,407.885,431.985,407.885
					z"/>
				<g id="XMLID_45_">
					<path id="XMLID_49_" style="fill:#26345B;" d="M372.18,402.363h-2.794l2.644-18.678c0.157-1.107,1.104-1.93,2.222-1.93h21.41v3
						h-20.782L372.18,402.363z"/>
				</g>
				<g id="XMLID_47_">
					<path id="XMLID_48_" style="fill:#26345B;" d="M413.715,402.135h-3l2.803-18.499c0.164-1.081,1.093-1.881,2.187-1.881h21.456v3
						h-20.782L413.715,402.135z"/>
				</g>
			</g>
			<path id="XMLID_317_" style="fill:#AEACD3;" d="M446,454.441c0,0-26.5-23.738-20-29.238s22.25,23.25,22.25,23.25
				s-12.432-30-6.591-36.25c5.841-6.25,11.091,20,11.091,20s0.5-37.5,9.5-39s0,42,0,42s7.75-10.75,14-8.5s-10.25,19-10.25,19
				s8.75-8.5,13.5-6.25s-10.75,15.33-10.75,15.33L446,454.441z"/>
			<g id="XMLID_374_">
				<rect id="XMLID_136_" x="39.155" y="366.632" style="fill:#ACAAD1;" width="73.032" height="87.809"/>
				<rect id="XMLID_137_" x="46.25" y="373.786" style="fill:#9092C2;" width="56.5" height="22.667"/>
				<rect id="XMLID_333_" x="46.25" y="403.827" style="fill:#9092C2;" width="56.5" height="46.454"/>
				<circle id="XMLID_315_" style="fill:#ACAAD1;" cx="74.25" cy="384.952" r="3"/>
				<rect id="XMLID_341_" x="73.25" y="401.952" style="fill:#ACAAD1;" width="3.25" height="50.5"/>
				<rect id="XMLID_342_" x="47.833" y="335.786" style="fill:#6670AB;" width="9" height="30.847"/>
				<circle id="XMLID_148_" style="fill:#9092C2;" cx="52.188" cy="342.14" r="2.188"/>
				<rect id="XMLID_150_" x="47.833" y="345.827" style="fill:#9092C2;" width="9" height="4.75"/>
				<rect id="XMLID_367_" x="65.833" y="335.786" style="fill:#6670AB;" width="9" height="30.847"/>
				<circle id="XMLID_351_" style="fill:#9092C2;" cx="70.188" cy="342.14" r="2.188"/>
				<rect id="XMLID_348_" x="65.833" y="345.827" style="fill:#9092C2;" width="9" height="4.75"/>
				<rect id="XMLID_354_" x="56.833" y="335.786" style="fill:#505C93;" width="9" height="30.847"/>
				<rect id="XMLID_382_" x="74.25" y="335.786" style="fill:#505C93;" width="9" height="30.847"/>
			</g>
		</g>
	</g>
</g>
</svg>
